<?xml version="1.0" standalone="no"?>
<!DOCTYPE svg PUBLIC "-//W3C//DTD SVG 20010904//EN"
 "http://www.w3.org/TR/2001/REC-SVG-20010904/DTD/svg10.dtd">
<svg version="1.0" xmlns="http://www.w3.org/2000/svg"
 width="1920.000000pt" height="1080.000000pt" viewBox="0 0 1920.000000 1080.000000"
 preserveAspectRatio="xMidYMid meet">
<metadata>
Created by potrace 1.16, written by Peter Selinger 2001-2019
</metadata>
<g transform="translate(0.000000,1080.000000) scale(0.100000,-0.100000)"
fill="#000000" stroke="none">
<path d="M11530 10554 c-88 -8 -112 -14 -101 -28 13 -16 4 -26 -22 -26 -15 0
-18 -5 -13 -24 4 -15 0 -28 -9 -36 -9 -7 -14 -24 -13 -39 3 -21 -4 -29 -35
-44 -30 -14 -36 -21 -28 -31 8 -10 2 -17 -29 -31 -39 -17 -70 -13 -40 5 11 7
12 12 4 20 -9 9 -15 7 -25 -7 -10 -13 -26 -19 -51 -19 l-38 0 23 25 c21 23 21
24 2 17 -11 -4 -32 -9 -48 -10 -17 -1 -41 -17 -66 -44 -22 -23 -42 -39 -45
-34 -6 10 48 72 62 72 6 0 15 6 19 13 4 7 24 23 43 35 40 25 33 29 -13 8 -18
-8 -60 -23 -94 -34 -71 -23 -138 -78 -146 -120 -3 -15 -22 -45 -41 -66 -38
-40 -43 -51 -26 -61 8 -5 7 -11 0 -20 -13 -16 -4 -38 13 -32 6 2 24 -10 40
-26 29 -29 30 -30 57 -13 16 9 36 16 47 16 10 0 27 7 37 15 26 20 46 19 46 -1
0 -13 7 -15 31 -12 25 4 33 1 37 -14 5 -20 17 -24 27 -8 10 16 25 12 25 -6 0
-12 7 -15 25 -12 22 5 24 2 19 -18 -8 -31 1 -30 44 3 23 17 37 23 40 15 2 -7
12 -12 23 -12 10 0 19 -6 19 -14 0 -25 70 -6 119 31 25 19 51 31 58 29 7 -3
18 3 25 13 7 9 28 28 45 41 41 30 36 36 -12 15 -62 -25 -51 -10 16 24 62 31
93 33 54 5 -19 -15 -18 -15 9 -8 21 5 27 4 22 -5 -5 -7 2 -11 19 -11 17 0 24
-4 19 -11 -4 -7 0 -9 14 -5 11 4 -11 -24 -49 -61 -38 -37 -69 -70 -69 -73 0
-3 4 -11 9 -19 8 -12 12 -12 25 -2 10 9 29 11 50 8 19 -3 37 -3 41 1 7 7 65
12 152 12 60 1 187 -32 199 -51 3 -5 13 -9 22 -9 9 0 32 -14 51 -30 27 -24 31
-33 22 -44 -10 -11 -6 -17 19 -27 16 -8 30 -18 30 -24 0 -5 13 -18 30 -27 27
-16 29 -19 18 -48 -6 -17 -16 -34 -23 -36 -9 -4 -9 -13 -1 -39 6 -19 14 -35
18 -35 16 0 7 -29 -13 -43 -13 -10 -17 -17 -9 -22 6 -4 8 -16 4 -27 -4 -13 -1
-24 7 -29 10 -6 10 -9 2 -9 -7 0 -17 -16 -22 -36 -8 -29 -7 -40 4 -51 8 -8 15
-22 14 -31 0 -14 -2 -13 -10 3 -7 15 -8 7 -5 -26 5 -40 3 -48 -14 -52 -11 -3
-20 -12 -20 -21 0 -19 29 -21 36 -3 8 22 34 16 33 -7 0 -12 -3 -15 -6 -8 -4
10 -8 10 -19 1 -19 -15 -18 -30 1 -23 12 5 15 -2 15 -28 0 -29 -5 -36 -37 -50
-34 -16 -37 -16 -49 0 -8 9 -14 23 -14 30 0 6 -4 12 -9 12 -9 0 -18 23 -30 69
-4 17 -18 28 -45 37 -81 29 -173 23 -160 -9 5 -14 1 -15 -103 -20 -40 -2 -78
-9 -87 -16 -13 -11 -22 -11 -41 -3 -23 11 -29 8 -66 -28 -23 -22 -38 -40 -34
-40 3 0 -3 -12 -14 -26 -24 -30 -29 -105 -8 -122 9 -8 24 -8 52 0 22 5 53 10
70 9 17 0 39 8 53 22 l23 22 19 -25 c17 -22 25 -24 102 -25 79 -1 121 -13 140
-40 9 -13 -6 -28 -34 -32 -46 -7 -43 -23 5 -23 33 0 49 5 53 15 3 8 15 17 27
21 27 9 44 26 48 49 2 10 10 20 18 23 11 4 12 -2 7 -22 -7 -27 -6 -27 33 -24
22 2 40 -1 40 -7 0 -5 -13 -8 -30 -6 -23 2 -30 -1 -27 -11 3 -7 16 -13 31 -13
33 0 43 -11 28 -29 -10 -11 -8 -16 6 -25 14 -7 15 -12 6 -22 -9 -9 -8 -15 3
-26 12 -12 12 -18 2 -30 -7 -8 -17 -25 -23 -37 -6 -11 -20 -25 -33 -31 -12 -5
-22 -17 -22 -27 0 -9 -4 -18 -10 -20 -5 -1 -14 -18 -19 -36 -8 -27 -7 -34 6
-39 9 -4 18 -2 21 5 2 6 10 8 19 5 9 -4 19 1 25 10 11 20 35 22 40 5 3 -7 -5
-28 -16 -47 l-20 -34 21 5 c19 5 22 1 25 -40 2 -28 -2 -50 -9 -58 -17 -16 -17
-46 0 -63 10 -10 9 -12 -3 -9 -9 2 -16 -6 -18 -20 -3 -18 -8 -23 -23 -19 -22
6 -49 -17 -49 -41 0 -13 2 -14 9 -4 7 11 9 11 14 -2 3 -8 3 -18 -2 -20 -4 -3
-9 -31 -10 -63 -2 -64 -16 -114 -43 -155 -10 -14 -18 -31 -18 -38 0 -37 -62
-132 -76 -117 -7 7 37 88 45 83 3 -2 6 42 6 97 0 83 4 107 19 129 10 16 15 35
12 44 -7 19 3 66 13 59 12 -7 6 87 -7 118 -6 15 -13 27 -15 27 -13 0 -57 -79
-51 -93 3 -9 2 -22 -2 -29 -12 -18 -15 -33 -23 -123 -5 -44 -18 -116 -29 -160
-11 -44 -23 -92 -26 -106 -8 -36 -62 -87 -108 -101 -21 -6 -38 -14 -38 -18 0
-4 -16 -23 -34 -42 -27 -28 -54 -42 -123 -62 -48 -15 -102 -31 -118 -36 -34
-11 -92 -5 -145 14 -36 14 -60 11 -72 -8 -5 -8 -17 -6 -39 7 -17 9 -36 17 -43
17 -7 0 -52 34 -99 75 -47 41 -88 75 -91 75 -3 0 -6 -8 -6 -17 -1 -20 -107 88
-145 147 -12 19 -31 45 -41 57 -11 12 -30 40 -43 62 -37 61 -37 41 0 -25 56
-103 126 -190 241 -302 l68 -66 -28 -29 c-39 -42 -59 -50 -137 -57 -133 -13
-379 -117 -450 -190 -22 -23 -65 -55 -95 -71 -30 -16 -64 -35 -75 -41 -72 -44
-102 -64 -120 -79 -22 -17 -98 -39 -140 -39 -26 0 -36 -4 -90 -33 -16 -9 -46
-24 -65 -34 -19 -10 -48 -33 -65 -51 -16 -19 -47 -53 -68 -76 -21 -22 -40 -51
-44 -64 -4 -18 -8 -20 -19 -11 -11 9 -14 7 -14 -10 0 -23 -15 -29 -23 -8 -4
10 -6 10 -6 0 -1 -7 -8 -13 -16 -13 -17 0 -20 -16 -5 -25 27 -17 -7 -33 -89
-42 -50 -5 -88 -32 -122 -84 -16 -25 -29 -49 -29 -53 0 -12 -54 -88 -82 -117
-16 -15 -28 -36 -28 -47 0 -21 -50 -96 -82 -124 -16 -15 -20 -30 -20 -99 0
-54 5 -84 13 -90 8 -4 -4 -12 -32 -19 -24 -7 -53 -16 -64 -21 -11 -5 -39 -13
-62 -18 -27 -5 -54 -20 -72 -40 -16 -17 -34 -31 -40 -31 -6 0 -11 -6 -11 -14
0 -7 -16 -26 -35 -40 -19 -15 -46 -49 -60 -75 -13 -26 -35 -55 -49 -64 -13 -9
-27 -26 -31 -37 -3 -11 -12 -20 -20 -20 -7 0 -33 -18 -56 -40 -23 -22 -45 -41
-49 -42 -11 -6 -80 -117 -80 -130 0 -7 -13 -28 -30 -46 -16 -18 -30 -37 -30
-42 0 -4 -14 -13 -30 -19 -42 -14 -78 -43 -72 -59 2 -6 -2 -12 -8 -12 -21 0
-80 -52 -80 -71 0 -16 -8 -18 -83 -16 -56 1 -87 -2 -97 -11 -8 -7 -31 -21 -50
-30 -24 -12 -36 -25 -38 -42 -2 -14 -10 -29 -18 -33 -8 -4 -14 -17 -14 -28 0
-22 -70 -97 -126 -135 -40 -28 -87 -33 -78 -9 4 10 0 15 -15 15 -25 0 -26 -6
-5 -28 15 -15 15 -17 -9 -25 -14 -4 -27 -17 -30 -27 -3 -11 -12 -20 -20 -20
-8 0 -17 -9 -20 -19 -3 -14 -11 -18 -26 -14 -15 4 -23 -1 -32 -21 -7 -14 -20
-26 -30 -26 -10 0 -33 -23 -54 -55 -20 -30 -43 -55 -51 -55 -7 0 -14 -4 -14
-9 0 -5 -17 -12 -37 -16 -21 -4 -44 -11 -50 -17 -9 -7 -13 -7 -13 1 0 6 4 11
9 11 4 0 21 10 36 22 38 30 21 36 -114 44 -61 4 -111 10 -111 14 0 4 11 19 25
34 14 15 25 31 25 37 0 5 5 9 12 9 23 0 68 63 62 86 -3 12 -1 31 5 42 8 15 8
23 0 28 -15 9 -30 -15 -27 -46 1 -14 -4 -36 -12 -50 -16 -30 -60 -70 -77 -70
-6 0 -15 -9 -18 -21 -4 -11 -13 -18 -20 -16 -8 4 -12 -3 -12 -19 0 -13 3 -24
8 -24 18 0 8 -16 -11 -17 -14 -1 -20 5 -21 20 l0 22 -9 -21 c-11 -28 -30 -40
-39 -25 -5 8 -15 6 -33 -9 -15 -11 -32 -20 -39 -20 -16 0 47 66 101 106 22 16
40 34 40 40 0 7 -18 30 -41 54 -29 29 -45 40 -57 35 -41 -17 -55 -16 -107 10
-31 15 -63 24 -71 21 -8 -3 -17 1 -20 9 -12 29 -117 13 -173 -27 -21 -15 -27
-15 -60 -2 -27 11 -48 12 -85 5 -39 -7 -52 -6 -64 6 -8 8 -24 12 -35 9 -12 -3
-35 4 -54 15 -18 11 -38 17 -44 13 -8 -4 -9 1 -4 16 7 22 6 23 -41 16 -27 -4
-78 -9 -113 -11 -46 -3 -67 -9 -74 -20 -7 -13 -18 -15 -47 -10 -29 5 -39 3
-43 -9 -8 -20 -27 -21 -27 -1 0 18 37 54 68 66 12 5 22 15 22 24 0 19 -4 19
-41 -1 -28 -14 -33 -14 -55 1 -13 8 -24 20 -24 25 0 5 -21 9 -47 7 -44 -2 -48
0 -47 21 1 22 -20 30 -31 12 -10 -16 -71 -41 -103 -42 -17 -1 -42 6 -56 15
-24 16 -26 16 -35 -1 -5 -9 -7 -30 -4 -45 3 -15 1 -27 -4 -27 -6 0 -10 -17 -9
-37 1 -34 -2 -38 -26 -41 -28 -3 -34 10 -29 54 2 16 -30 23 -82 17 -58 -7 -81
-42 -71 -108 7 -50 -5 -62 -46 -47 -17 6 -25 17 -25 33 0 17 -6 25 -22 27 -13
2 -23 8 -23 13 0 22 -36 49 -65 49 -37 0 -55 -16 -55 -47 0 -20 -5 -23 -35
-23 -33 0 -35 -2 -35 -35 0 -19 7 -53 16 -75 13 -32 14 -43 4 -55 -29 -34 -87
1 -92 56 -2 26 -8 34 -23 34 -18 0 -20 -6 -17 -46 2 -30 -1 -49 -11 -57 -12
-10 -16 -7 -20 18 -10 47 -47 59 -96 32 -21 -12 -53 -22 -70 -22 -17 0 -31 -4
-31 -10 0 -5 -6 -10 -14 -10 -7 0 -16 -9 -19 -20 -3 -11 -1 -20 4 -20 5 0 9 6
9 13 0 8 3 7 10 -3 7 -12 16 -13 55 -2 50 13 155 6 155 -11 0 -5 -8 -15 -17
-22 -15 -11 -15 -13 4 -23 11 -6 55 -14 99 -17 43 -3 106 -10 139 -15 33 -5
119 -12 191 -15 115 -6 132 -5 137 9 8 20 31 21 48 0 9 -11 9 -18 2 -22 -13
-8 29 -62 47 -62 21 0 60 -48 54 -67 -4 -13 -3 -14 4 -5 7 11 16 7 43 -17 18
-17 37 -31 41 -31 5 0 8 -5 8 -12 0 -6 6 -19 14 -27 13 -14 11 -16 -19 -16
-19 0 -40 7 -47 16 -7 9 -21 19 -31 23 -15 5 -17 2 -12 -14 4 -11 2 -20 -4
-20 -6 0 -11 5 -11 11 0 5 -4 8 -9 5 -5 -3 -28 -7 -52 -10 -24 -2 -53 -7 -64
-12 -18 -7 -18 -6 3 20 24 31 21 46 -9 46 -13 0 -24 -12 -35 -39 -15 -37 -48
-59 -60 -40 -10 17 -25 9 -19 -10 6 -21 -17 -52 -48 -64 -14 -5 -17 0 -17 24
l0 29 -48 -38 -49 -38 -66 10 c-37 6 -67 13 -67 17 0 4 16 19 35 35 19 15 35
34 35 41 0 16 -12 17 -28 1 -9 -9 -17 -9 -36 2 -21 11 -28 11 -42 -1 -15 -12
-16 -11 -9 21 4 19 9 38 12 43 8 14 22 7 26 -15 3 -21 4 -22 12 -4 13 29 -45
57 -72 34 -10 -8 -18 -6 -32 6 -18 16 -20 16 -46 -8 -16 -15 -33 -26 -40 -26
-12 0 -65 74 -65 91 0 5 -9 0 -20 -11 -15 -15 -19 -27 -14 -46 6 -23 4 -25
-13 -20 -16 5 -20 2 -19 -16 1 -20 6 -23 46 -24 51 0 90 -11 90 -24 0 -5 33
-14 74 -21 56 -8 73 -15 69 -25 -3 -8 -9 -11 -14 -8 -5 3 -14 2 -20 -2 -8 -5
-7 -9 1 -14 8 -5 3 -7 -13 -7 -14 1 -23 5 -21 9 3 4 -18 6 -46 5 -27 -1 -50 1
-50 5 0 5 -7 8 -16 8 -12 0 -14 -7 -9 -32 10 -43 10 -44 49 -30 18 7 41 10 50
6 9 -3 23 -1 31 6 14 12 69 6 90 -10 6 -4 24 -11 42 -14 38 -9 53 -25 62 -69
7 -30 10 -32 45 -30 31 2 38 -1 47 -24 5 -14 7 -28 4 -31 -9 -9 -68 -7 -90 3
-11 4 -27 7 -36 6 -22 -3 -33 28 -16 48 7 9 12 24 10 34 -5 19 -18 23 -28 7
-3 -5 -19 -10 -36 -10 -19 0 -29 -5 -29 -14 0 -10 -8 -13 -22 -11 -12 3 -29
-2 -37 -9 -9 -8 -44 -18 -78 -22 -53 -5 -64 -4 -69 10 -3 9 -14 16 -24 16 -15
0 -17 6 -13 41 6 40 6 40 -23 34 -54 -13 -64 -16 -64 -26 0 -5 -9 -4 -20 3
-18 11 -23 10 -39 -10 -15 -20 -19 -21 -29 -9 -7 7 -9 16 -6 19 3 3 7 21 9 39
3 18 16 49 29 68 30 41 26 54 -7 23 -17 -16 -26 -18 -41 -10 -19 11 -36 -3
-36 -30 0 -10 -5 -10 -20 -2 -23 13 -27 48 -5 56 20 8 20 54 -1 54 -27 0 -54
-20 -54 -40 0 -25 -20 -25 -51 -2 -13 10 -32 21 -41 25 -26 9 -22 27 6 27 13
0 27 7 30 16 10 26 0 28 -32 5 -17 -12 -37 -21 -45 -21 -9 0 -19 -5 -22 -11
-9 -13 -47 -28 -58 -22 -4 3 -3 11 4 19 8 10 8 14 0 14 -7 0 -9 9 -5 25 5 21
3 25 -15 25 -24 0 -27 -10 -9 -28 9 -9 9 -15 0 -24 -10 -10 -17 -7 -35 16 -18
22 -28 27 -45 22 -18 -6 -22 -3 -22 13 0 11 6 26 13 33 7 7 16 22 20 32 7 19
7 19 -11 3 -24 -22 -35 -21 -77 5 -44 29 -48 65 -7 73 15 3 45 9 67 14 42 10
69 2 79 -24 5 -13 8 -13 26 5 11 11 20 26 20 34 0 20 44 53 81 61 35 8 31 20
-11 28 -16 4 -30 12 -30 18 0 7 -7 20 -16 30 -21 23 -11 65 17 74 18 6 20 12
15 46 -5 28 -3 39 6 39 18 0 68 48 68 65 0 31 -14 45 -52 51 -29 5 -42 13 -49
30 -4 13 -15 24 -24 24 -8 0 -15 8 -15 18 0 27 -38 57 -66 54 -18 -3 -24 1
-24 16 0 10 -7 33 -16 51 -9 19 -14 44 -11 60 3 16 1 33 -5 39 -7 7 -5 13 8
20 41 21 83 24 119 7 25 -13 47 -15 79 -11 27 4 47 3 51 -4 3 -5 21 -10 38
-10 18 0 43 -7 55 -16 36 -25 52 -4 45 59 -3 29 -9 57 -13 62 -4 6 -10 24 -13
42 -5 23 -2 33 9 37 8 3 13 10 9 15 -3 5 -1 12 5 16 13 8 13 35 0 35 -5 0 -12
-11 -16 -25 -3 -14 -10 -23 -14 -20 -4 2 -50 7 -101 9 -52 3 -112 12 -134 20
-39 14 -40 16 -37 55 3 36 1 40 -15 34 -10 -3 -26 -12 -35 -20 -14 -13 -21
-12 -52 2 -46 22 -50 29 -31 58 8 13 13 32 9 41 -3 9 1 31 9 49 23 48 26 101
6 105 -11 2 -21 -7 -28 -25 -7 -15 -19 -41 -28 -57 l-16 -29 -28 33 c-16 18
-29 38 -29 44 0 6 -23 30 -50 54 -49 42 -66 85 -38 94 7 3 5 13 -7 31 l-18 28
-27 -26 c-16 -15 -38 -25 -56 -25 -26 0 -34 -7 -57 -50 -15 -27 -27 -59 -27
-70 0 -25 -34 -43 -69 -35 -20 4 -32 0 -46 -15 -26 -29 -45 -25 -45 10 0 19 7
33 20 40 11 6 20 15 20 20 0 24 -124 -5 -145 -34 -9 -12 -11 -27 -4 -49 13
-47 12 -53 -20 -66 -37 -16 -107 -11 -103 7 1 7 -3 22 -9 34 -10 18 -18 20
-63 15 -76 -8 -104 1 -129 39 -17 26 -29 34 -52 34 -21 0 -43 12 -73 40 -23
22 -46 40 -51 40 -21 0 -41 34 -41 69 0 21 -6 44 -14 51 -21 17 -9 42 14 30
43 -23 42 44 -3 81 l-32 27 18 32 c27 45 17 60 -40 60 -85 0 -90 4 -92 68 -1
38 3 64 13 77 9 11 16 33 16 48 0 27 -2 28 -37 25 -37 -3 -38 -2 -43 32 -6 44
-29 50 -80 21 l-38 -21 -31 29 c-61 57 -110 44 -111 -30 0 -40 -20 -63 -61
-73 -24 -5 -27 -2 -33 25 -11 55 -7 86 16 114 18 23 19 31 9 47 -14 22 5 48
37 48 23 0 52 30 52 53 0 13 10 17 44 17 51 0 61 9 42 36 -12 16 -17 17 -55 4
-22 -7 -41 -17 -41 -23 0 -13 -100 2 -127 19 -12 7 -33 25 -48 40 l-26 26 -34
-26 c-18 -14 -40 -26 -47 -26 -8 0 -22 -6 -33 -14 -39 -27 -62 -28 -84 -5 -19
20 -36 24 -103 19 -17 -1 -26 -20 -10 -20 19 -1 42 -29 36 -44 -9 -24 -24 -19
-24 8 0 20 -4 23 -28 18 -38 -7 -50 -19 -62 -62 -15 -57 -31 -65 -77 -42 -64
33 -174 15 -219 -36 -15 -17 -28 -22 -42 -18 -13 4 -22 1 -25 -8 -3 -8 -25
-25 -48 -36 -40 -21 -43 -21 -75 -4 -27 15 -35 16 -48 5 -24 -20 -20 -37 16
-70 l33 -30 -22 -21 c-12 -11 -35 -20 -51 -20 -33 0 -92 -50 -92 -78 0 -9 -20
-37 -44 -61 -36 -35 -49 -42 -69 -37 -28 7 -107 -18 -119 -37 -4 -7 -8 -26 -8
-44 0 -36 -28 -58 -60 -48 -25 8 -63 -13 -56 -30 2 -7 -2 -19 -10 -25 -26 -23
-16 -62 26 -101 39 -36 41 -37 101 -32 l61 6 -12 -24 c-9 -17 -10 -24 -2 -27
18 -6 -3 -38 -43 -65 l-35 -24 22 -23 c13 -13 23 -33 24 -45 2 -26 14 -56 30
-75 7 -8 14 -28 16 -45 3 -29 4 -30 50 -27 36 3 54 -1 72 -16 30 -23 24 -32
-22 -32 -20 0 -32 -3 -29 -7 4 -3 2 -12 -4 -19 -17 -20 -3 -44 24 -44 47 0 71
-67 38 -103 -11 -12 -29 -33 -40 -47 -12 -16 -30 -25 -50 -26 -62 -3 -63 -3
-56 -25 5 -14 -1 -27 -18 -45 -16 -15 -27 -42 -32 -71 -6 -39 -16 -56 -62
-102 -49 -49 -54 -58 -52 -93 4 -51 -7 -60 -59 -46 -47 12 -51 24 -22 61 11
14 20 30 20 35 0 18 -49 42 -84 42 -33 0 -66 20 -66 41 0 5 -24 20 -54 34 -30
14 -63 37 -74 52 -23 34 -62 115 -62 130 0 5 -11 22 -25 38 l-26 27 -28 -30
c-16 -16 -34 -45 -41 -64 -7 -19 -20 -40 -29 -45 -20 -13 -61 1 -61 21 0 17
-41 29 -54 16 -6 -6 -18 -10 -28 -10 -13 0 -18 8 -18 29 0 38 -23 45 -51 15
-19 -20 -22 -33 -20 -91 2 -76 -16 -127 -50 -136 -22 -6 -37 7 -72 62 -47 74
-47 75 -47 -441 0 -472 0 -483 20 -496 11 -7 20 -23 20 -37 0 -33 56 -69 133
-86 43 -9 57 -16 57 -30 0 -11 10 -20 29 -24 60 -13 77 -68 24 -81 -17 -5 -34
0 -55 16 -25 19 -35 21 -49 11 -29 -17 -59 -13 -95 14 -18 14 -35 25 -39 25
-3 0 -4 -19 -3 -42 3 -36 -1 -44 -19 -53 -36 -16 -30 -45 10 -45 17 0 49 -5
70 -11 38 -10 38 -11 23 -34 -9 -14 -16 -29 -16 -34 0 -5 33 -14 73 -21 111
-18 105 -13 101 -73 -2 -45 -6 -54 -31 -69 -36 -23 -49 -22 -84 3 -17 12 -50
23 -73 25 -41 4 -45 2 -55 -26 -5 -17 -17 -33 -26 -36 -13 -5 -15 -99 -15
-867 l0 -860 25 27 c27 29 50 26 40 -5 -4 -12 -1 -21 9 -25 12 -5 13 -11 6
-24 -12 -23 -13 -33 -1 -26 12 8 71 -16 71 -29 0 -22 -22 -35 -36 -22 -44 39
-44 39 -54 11 -6 -15 -9 -33 -6 -41 6 -15 42 -18 51 -3 11 18 26 10 23 -12 -3
-23 -7 -25 -64 -27 -23 -1 -33 -7 -37 -22 -3 -12 -10 -18 -16 -14 -8 4 -11
-40 -11 -144 l0 -151 24 0 c14 0 31 7 39 15 8 8 17 12 19 9 3 -2 11 2 18 11 7
8 24 15 38 15 13 0 42 5 64 12 31 9 44 9 59 0 31 -20 154 -36 279 -37 63 0
135 -4 160 -8 93 -17 106 -19 154 -24 47 -5 126 12 126 27 0 4 -7 20 -15 37
-19 38 -2 80 32 80 13 0 31 11 41 23 12 15 33 25 58 28 68 7 114 3 114 -11 0
-6 9 2 20 16 11 14 20 32 20 40 0 19 30 30 54 21 16 -6 16 -8 0 -25 -9 -11
-13 -19 -9 -19 5 0 4 -5 -2 -11 -7 -7 -7 -22 -1 -47 l9 -37 104 0 c86 0 106 3
124 19 18 16 22 17 36 3 21 -21 19 -26 -12 -38 -28 -10 -28 -11 -6 -22 18 -10
20 -15 11 -31 -8 -15 -7 -22 6 -32 16 -11 16 -13 1 -16 -15 -3 -14 -6 4 -27
23 -26 43 -85 35 -105 -10 -25 22 -39 61 -26 26 9 39 9 49 1 7 -6 25 -12 40
-13 20 -2 26 -8 26 -25 0 -17 10 -27 37 -40 l38 -17 -37 -4 c-36 -3 -38 -5
-38 -39 0 -32 2 -35 25 -31 14 3 25 1 25 -3 0 -19 82 -61 106 -55 16 4 24 2
24 -7 0 -9 27 -18 78 -27 42 -7 80 -13 84 -12 17 4 29 -45 35 -137 4 -68 2
-100 -6 -105 -20 -13 -12 -51 19 -88 l31 -37 -21 -21 c-13 -13 -25 -44 -32
-83 -7 -43 -19 -71 -37 -92 -28 -31 -66 -104 -62 -119 1 -5 -6 -5 -16 -1 -19
8 -74 8 -82 0 -2 -3 4 -14 15 -26 13 -14 27 -19 47 -16 20 3 32 -2 40 -15 14
-21 33 -24 40 -5 4 8 8 9 14 1 4 -6 24 -14 43 -17 25 -5 31 -4 20 3 -12 8 -9
10 13 10 35 0 34 17 -3 38 -22 13 -28 22 -24 37 9 28 25 46 36 39 5 -3 15 0
23 6 12 10 16 9 20 -3 8 -20 52 0 59 27 2 10 9 15 15 11 6 -3 11 -2 11 3 0 5
18 14 40 21 23 7 40 18 40 26 0 8 -4 15 -9 15 -5 0 -11 9 -14 20 -3 11 -10 20
-16 20 -15 0 -14 -27 2 -33 6 -3 0 -6 -15 -6 -15 -1 -30 4 -34 10 -3 6 -15 9
-25 6 -33 -9 -64 58 -32 70 24 9 33 23 33 52 0 20 3 22 27 16 37 -9 37 -9 18
-39 -11 -16 -13 -26 -6 -26 15 0 14 -27 -1 -33 -9 -4 -8 -6 2 -6 22 -1 58 30
43 36 -18 7 -16 23 2 23 8 0 15 -6 15 -12 0 -7 5 -5 11 5 12 20 -4 47 -27 47
-7 0 -18 8 -23 19 -8 14 -5 23 10 40 23 25 21 24 53 10 14 -7 23 -16 20 -20
-3 -5 7 -9 21 -9 14 0 24 -3 22 -7 -3 -5 15 -6 40 -4 35 2 48 -1 55 -13 8 -14
13 -15 24 -5 11 9 14 8 14 -4 0 -9 -7 -17 -15 -19 -9 -2 -12 -8 -6 -17 11 -17
48 -6 56 18 5 17 59 39 140 57 17 4 37 13 47 21 19 17 128 44 128 32 0 -18 18
-8 23 12 5 17 11 20 29 15 13 -4 29 -7 36 -6 49 3 53 6 62 40 13 47 79 100
125 100 8 0 21 11 27 25 9 21 9 29 -4 42 -10 9 -21 12 -30 7 -7 -5 -30 -10
-52 -11 -31 -2 -37 0 -32 13 3 9 6 18 6 20 0 8 59 4 65 -5 3 -6 17 -6 35 -1
26 7 30 6 30 -11 0 -10 6 -20 13 -20 6 -1 19 -3 27 -4 8 -1 21 -3 28 -4 7 0
11 -5 7 -10 -3 -5 -1 -12 5 -16 6 -3 13 1 16 9 7 19 44 22 44 4 0 -7 -9 -24
-20 -38 -37 -48 -19 -81 33 -61 25 10 27 15 27 66 0 42 4 55 15 55 23 0 36 36
42 116 4 51 2 82 -7 99 -8 15 -10 35 -5 57 12 54 13 169 2 233 -11 64 -30 95
-57 95 -9 0 -21 5 -28 12 -17 17 -28 2 -12 -17 11 -13 8 -15 -19 -15 -38 0
-43 26 -7 40 41 15 38 46 -7 63 -11 4 -20 1 -23 -8 -4 -8 -12 -15 -20 -15 -16
0 -19 26 -4 35 5 3 10 13 10 21 0 16 -45 20 -55 4 -4 -6 -14 -9 -22 -8 -9 2
-18 -3 -20 -9 -3 -8 4 -13 16 -13 12 0 21 -4 21 -10 0 -5 -7 -10 -16 -10 -8 0
-13 -4 -10 -9 3 -5 -8 -14 -25 -21 -26 -11 -32 -11 -40 1 -13 21 -40 0 -68
-54 -24 -46 -42 -56 -70 -38 -17 11 -6 31 17 31 10 0 25 17 36 40 10 22 27 47
38 56 10 10 18 23 18 29 0 7 19 16 42 21 41 8 43 11 46 47 3 29 7 37 23 37 12
0 17 4 13 11 -4 8 -1 8 12 1 21 -11 104 -19 119 -11 6 3 16 4 23 3 6 -1 16 -2
21 -3 5 0 7 -10 4 -21 -4 -15 0 -20 15 -20 14 0 22 8 24 22 4 29 20 33 46 11
29 -26 39 -63 15 -63 -10 0 -26 -12 -36 -25 -17 -23 -17 -25 2 -35 11 -5 24
-10 30 -10 18 0 51 34 51 52 0 11 8 18 20 18 12 0 39 9 61 21 23 11 47 18 55
15 8 -3 14 -1 14 4 0 6 -6 10 -14 10 -24 0 -31 41 -10 57 16 12 16 13 -10 13
-20 0 -27 -4 -23 -14 3 -8 -1 -17 -9 -20 -23 -9 -24 -8 -24 18 0 15 -7 26 -20
29 -25 6 -26 -2 -2 -19 16 -12 15 -13 -8 -22 -20 -8 -26 -6 -32 9 -9 23 -44
25 -56 4 -7 -13 -10 -12 -22 9 -10 20 -20 25 -49 23 -26 -1 -36 2 -39 15 -4
21 44 36 61 19 15 -15 66 -14 97 2 47 25 75 42 93 56 13 11 54 16 140 19 68 2
128 9 136 15 11 9 12 38 7 151 -9 166 -15 186 -55 186 -16 0 -31 -5 -33 -12
-3 -7 -11 -9 -24 -3 -10 4 -69 7 -130 6 -63 -2 -129 2 -155 9 -24 7 -51 13
-59 15 -8 1 -17 12 -20 23 -5 22 -116 142 -132 142 -15 0 -9 30 8 37 12 5 13
7 2 14 -16 10 -5 21 41 39 28 11 35 11 41 -1 8 -14 92 -17 163 -6 15 2 30 1
32 -4 3 -4 22 -1 42 7 31 13 49 14 117 4 77 -11 81 -11 97 9 13 16 24 19 46
15 47 -9 56 10 92 214 18 103 18 104 -2 111 -20 8 -20 8 1 13 15 4 22 14 22
32 0 32 8 34 170 40 142 6 136 6 210 3 30 -2 87 1 125 5 39 4 197 9 352 10
309 3 293 7 293 -58 0 -34 1 -35 35 -28 34 6 34 6 26 -23 -8 -28 -7 -29 15
-25 16 3 26 -1 30 -12 3 -9 15 -16 25 -16 10 0 19 -4 19 -10 0 -5 -4 -10 -9
-10 -5 0 -16 -3 -25 -6 -11 -4 -16 0 -16 12 0 9 -3 14 -7 11 -3 -4 -12 -2 -19
4 -10 8 -22 5 -49 -11 -19 -12 -39 -19 -45 -15 -6 3 -13 -1 -17 -11 -4 -10 0
-20 11 -26 9 -5 14 -14 11 -19 -4 -5 -11 -7 -16 -4 -5 4 -10 -15 -11 -42 -2
-73 -4 -95 -13 -125 -6 -23 -4 -28 10 -28 9 0 13 -5 9 -11 -19 -31 -27 -620
-9 -651 6 -10 8 -97 4 -235 -6 -276 -6 -282 46 -300 47 -16 62 -12 67 19 3 25
38 33 46 11 2 -7 -3 -13 -12 -13 -29 0 -27 -20 4 -60 44 -56 38 -76 -23 -72
-35 3 -47 0 -47 -10 0 -8 -11 -20 -24 -27 -27 -15 -62 -11 -59 7 2 6 -6 16
-17 22 -37 20 -24 40 26 40 40 0 45 2 34 15 -16 19 -54 19 -70 0 -7 -8 -18
-15 -24 -15 -21 -1 -67 -46 -66 -66 0 -10 2 -46 3 -80 1 -35 9 -70 18 -84 l16
-24 32 24 c33 23 34 23 85 6 28 -10 57 -20 65 -23 9 -3 11 -1 7 6 -4 6 -3 11
3 11 5 0 11 21 13 48 l3 47 45 0 c29 0 49 6 57 16 6 8 32 24 57 34 25 11 46
25 46 32 0 7 4 13 9 13 12 0 28 47 34 98 5 39 3 44 -20 53 -33 12 -38 11 -23
-6 16 -19 4 -52 -25 -71 -24 -16 -65 -11 -65 7 0 23 31 67 50 72 15 4 20 13
20 40 0 30 3 34 19 30 16 -4 19 -1 14 15 -3 14 1 22 16 27 18 5 19 8 7 21 -17
16 -46 8 -46 -13 0 -23 -35 -10 -38 14 -4 26 33 79 58 86 17 4 35 61 25 78 -3
5 -23 14 -45 20 -21 7 -41 17 -43 24 -8 20 5 65 19 65 21 0 28 22 10 32 -13 7
-14 13 -5 29 14 26 4 37 -20 22 -15 -10 -22 -8 -37 8 -9 10 -28 19 -41 19 -12
0 -23 5 -23 10 0 6 7 10 15 10 16 0 38 34 28 44 -3 3 -1 6 4 6 6 0 10 8 9 17
-2 14 -14 18 -55 19 -28 1 -55 4 -58 8 -3 3 -1 18 6 32 7 16 9 45 5 75 -6 44
-5 49 13 49 11 0 23 -3 27 -7 4 -4 61 -6 127 -4 85 2 119 0 119 -9 0 -6 -4 -8
-10 -5 -5 3 -10 1 -10 -5 0 -8 7 -9 18 -5 36 15 84 26 95 22 6 -2 12 -14 12
-27 0 -46 122 -63 203 -27 41 18 44 29 11 49 -36 22 -53 61 -39 88 15 28 51
50 80 50 30 0 70 -37 70 -64 0 -31 -31 -85 -45 -80 -7 3 -16 1 -20 -5 -9 -15
26 -13 46 2 9 7 43 11 80 11 99 -3 99 -3 99 -23 0 -11 8 -27 17 -37 15 -14 32
-16 133 -11 76 3 125 10 145 21 17 9 35 16 41 16 16 0 64 44 64 58 0 7 -8 12
-19 12 -25 0 -46 25 -30 36 7 4 15 2 17 -4 7 -21 18 -13 20 14 3 38 10 44 47
44 42 0 48 9 34 50 -10 26 -15 31 -35 26 -14 -4 -24 -2 -24 4 0 16 -37 12 -44
-5 -4 -11 -24 -14 -94 -13 -49 1 -93 -2 -99 -5 -6 -4 -25 -2 -43 3 -22 6 -39
6 -54 -2 -27 -15 -203 -21 -211 -8 -4 6 -13 7 -23 1 -9 -5 -60 -9 -112 -10
-185 -2 -566 -21 -664 -34 -14 -1 -23 6 -29 28 -5 17 -13 38 -18 48 -6 10 -5
17 1 17 6 0 8 22 6 54 -4 53 -4 54 26 60 17 3 52 6 78 6 45 0 49 2 54 27 12
68 -17 109 -46 64 -10 -17 -23 -21 -62 -21 -39 0 -46 3 -38 13 9 10 6 17 -8
30 -40 34 -26 47 53 47 60 0 77 4 91 19 26 29 176 53 176 29 0 -4 5 -8 10 -8
6 0 10 11 10 24 0 14 -4 28 -10 31 -16 10 -12 28 5 21 9 -3 18 0 21 7 3 9 27
13 82 12 42 -1 181 2 307 7 574 20 602 19 624 -27 25 -51 33 -106 19 -123 -7
-8 -15 -47 -18 -86 l-5 -71 -70 -2 c-38 -2 -94 -3 -122 -2 -31 0 -53 -4 -53
-10 0 -6 17 -11 38 -11 l37 -1 -30 -14 c-16 -7 -23 -14 -15 -14 27 -1 60 11
54 20 -3 5 11 9 30 9 36 0 56 -14 34 -24 -7 -3 11 -4 39 -3 39 1 53 6 53 16 0
11 3 12 11 4 6 -6 18 -9 26 -6 8 3 19 0 24 -8 7 -12 14 -11 40 4 39 22 232 37
243 18 4 -6 24 -11 44 -10 20 0 32 3 25 5 -14 6 -6 65 11 77 6 4 26 5 44 2 23
-4 32 -2 32 8 0 13 56 35 90 36 26 1 55 7 66 13 5 4 30 5 54 3 36 -2 48 -8 62
-30 9 -15 14 -33 12 -40 -3 -7 8 -17 27 -24 27 -9 30 -13 19 -26 -10 -13 -9
-15 8 -15 17 0 22 8 28 47 4 29 3 53 -5 65 -6 10 -7 18 -1 18 5 0 8 6 5 13 -3
9 -10 71 -14 139 -1 4 -24 7 -51 7 -54 -2 -52 2 -34 -60 4 -14 -1 -27 -15 -40
-11 -10 -22 -19 -25 -19 -2 0 -2 26 1 58 l5 59 -51 -2 c-28 -1 -54 -5 -59 -10
-4 -4 1 -5 10 -2 10 3 20 2 23 -3 5 -8 -12 -13 -92 -25 -39 -6 -43 -5 -43 14
0 26 -1 26 -44 0 -34 -20 -63 -18 -50 3 10 15 -18 29 -33 16 -9 -7 -14 -6 -19
6 -5 14 -29 16 -174 16 -93 0 -171 4 -174 9 -3 5 1 32 10 60 8 29 15 84 16
123 l0 71 145 -6 c88 -3 150 -10 159 -18 8 -6 14 -28 14 -48 0 -105 28 -196
49 -162 5 7 14 10 20 7 6 -4 11 -3 11 2 0 17 123 5 132 -12 13 -22 74 -21 87
2 9 15 12 15 21 2 9 -13 11 -13 19 0 6 8 13 12 16 8 4 -3 19 -3 33 1 15 4 38
5 52 1 19 -4 29 0 43 16 22 28 22 32 -5 55 l-23 18 32 1 c17 0 35 -5 38 -11 4
-6 19 -7 36 -4 29 7 29 6 29 -41 0 -52 25 -84 65 -84 20 0 23 7 29 63 4 34 10
74 13 90 3 16 1 27 -6 27 -6 0 -11 -11 -11 -25 0 -24 -2 -25 -35 -19 -30 5
-35 3 -36 -12 0 -13 -5 -8 -15 13 -16 37 -13 95 5 101 8 3 10 -5 6 -25 -3 -15
-2 -21 1 -13 4 8 12 18 18 22 6 4 2 14 -12 26 -14 12 -22 30 -21 48 2 27 2 27
6 4 6 -35 20 -47 36 -31 10 10 9 14 -6 22 -9 6 -17 22 -17 37 0 21 -2 24 -10
12 -5 -8 -10 -12 -11 -7 -1 4 -3 10 -4 15 -1 4 -6 27 -10 51 -7 40 -9 42 -22
26 -7 -11 -13 -27 -13 -37 0 -10 -5 -15 -13 -12 -8 3 -20 -3 -28 -12 -13 -16
-12 -17 14 -10 16 4 27 2 27 -4 0 -5 -3 -9 -7 -8 -5 0 -15 -1 -23 -4 -80 -27
-82 -27 -106 -11 -31 20 -30 28 6 43 21 9 31 21 35 44 4 19 25 52 53 80 44 46
47 48 86 41 63 -10 78 -37 22 -37 -39 0 -52 -23 -24 -42 12 -9 28 -16 34 -16
7 0 15 -6 18 -12 5 -10 7 -10 12 0 3 6 21 12 40 12 19 0 50 9 70 19 35 19 35
20 14 31 -20 11 -20 13 -6 29 12 13 13 20 4 29 -9 9 -8 12 6 12 13 0 17 5 13
19 -4 17 -1 19 29 14 29 -5 34 -3 34 15 0 11 4 23 9 26 15 9 43 -5 37 -19 -2
-7 7 -18 20 -25 17 -10 22 -19 18 -32 -4 -13 -1 -16 10 -12 9 3 16 1 16 -5 0
-6 16 -11 35 -11 34 0 35 -1 35 -39 0 -59 7 -71 40 -65 22 5 29 2 35 -15 7
-22 29 -28 40 -10 4 5 0 24 -8 42 -33 69 -31 71 63 80 47 4 92 10 100 13 21 8
107 7 159 -2 34 -5 40 -9 25 -14 -10 -4 -23 -7 -29 -6 -5 0 -13 -15 -17 -34
-5 -19 -10 -44 -13 -55 -3 -11 -14 -27 -26 -35 -17 -13 -18 -18 -7 -27 13 -11
18 -13 38 -13 6 0 10 -9 10 -21 0 -11 4 -18 9 -15 11 7 23 -22 15 -35 -6 -11
-10 -10 86 -14 143 -6 308 -4 337 4 26 8 30 5 47 -30 11 -21 26 -40 35 -43 42
-10 79 -5 96 14 19 21 43 17 25 -5 -8 -10 -4 -17 19 -31 31 -18 40 -34 21 -34
-5 0 -10 -4 -10 -10 0 -5 7 -7 15 -4 25 10 17 -19 -14 -53 -16 -18 -26 -34
-23 -37 3 -3 -8 -6 -24 -6 -16 0 -51 -3 -79 -6 -44 -5 -54 -3 -80 20 -16 14
-33 22 -38 17 -11 -11 13 -50 35 -57 10 -3 18 -9 18 -13 0 -4 9 -17 21 -30 12
-12 18 -25 14 -29 -3 -3 -9 -2 -13 4 -16 23 -66 54 -88 54 -13 0 -28 -9 -34
-20 -6 -11 -15 -20 -21 -20 -6 0 -25 -11 -43 -25 -18 -14 -40 -25 -48 -25 -8
0 -23 -9 -32 -19 -11 -12 -31 -19 -52 -19 -20 0 -38 -3 -41 -6 -10 -10 -42 14
-37 28 3 8 -12 24 -41 40 -35 21 -45 32 -40 45 3 10 6 35 7 55 1 28 5 36 20
36 11 0 18 -7 18 -19 0 -14 5 -18 20 -14 35 9 20 50 -21 58 -13 3 -25 9 -27
13 -1 5 -20 6 -41 2 -33 -6 -48 -6 -93 -1 -4 1 -5 7 -2 15 3 8 -3 19 -15 26
-17 9 -21 8 -21 -5 0 -30 -28 -14 -76 43 -27 31 -57 68 -66 82 -30 46 -65 80
-82 80 -9 0 -25 -14 -34 -31 -22 -40 -113 -162 -127 -171 -6 -3 -35 -43 -65
-87 -29 -44 -58 -77 -64 -74 -5 4 -7 0 -4 -9 4 -9 -5 -28 -22 -46 -58 -64 -74
-94 -71 -134 5 -67 -4 -78 -57 -76 -28 2 -55 10 -66 21 -19 16 -19 17 -1 31
15 11 17 20 11 52 -4 21 -9 48 -10 59 -2 14 -10 20 -27 20 -23 0 -24 -2 -21
-60 2 -33 10 -70 18 -82 18 -29 18 -33 -3 -33 -9 0 -13 -3 -10 -7 4 -3 0 -14
-8 -23 -19 -21 -10 -50 15 -50 10 0 23 -7 30 -15 18 -21 29 -19 42 10 6 15 20
25 31 25 11 0 28 7 38 16 19 17 39 11 39 -11 0 -9 -6 -12 -15 -8 -21 8 -55
-25 -55 -54 0 -24 14 -31 25 -13 11 18 25 10 25 -14 0 -33 -17 -42 -40 -21
-18 16 -20 16 -35 1 -20 -19 -26 -20 -20 -3 6 15 -50 41 -71 33 -10 -4 -14
-13 -10 -22 3 -9 6 -20 6 -25 0 -6 4 -8 8 -5 4 2 14 1 22 -4 12 -7 10 -13 -9
-34 -13 -13 -20 -29 -16 -35 3 -6 40 -11 86 -11 62 0 79 -3 79 -14 0 -14 -20
-18 -135 -29 -17 -2 -20 -9 -20 -52 l0 -50 45 2 c60 2 60 2 60 12 0 5 -9 11
-21 14 -30 8 -18 31 17 35 16 2 33 8 39 13 5 5 20 9 32 9 13 0 35 7 48 16 13
9 29 13 35 9 7 -4 10 -1 9 6 -5 24 12 59 27 59 8 0 12 5 9 10 -3 6 1 13 9 16
9 3 16 12 16 19 0 8 9 17 20 20 11 4 18 10 16 14 -3 4 16 25 41 47 25 21 68
61 94 88 56 56 73 53 77 -14 2 -22 14 -61 27 -87 14 -25 25 -52 25 -59 0 -8 8
-14 18 -14 9 0 35 -21 57 -45 22 -25 59 -66 83 -91 48 -52 54 -74 17 -66 -21
4 -24 1 -18 -14 3 -11 11 -22 17 -26 6 -4 7 -10 4 -14 -4 -3 -14 0 -22 7 -8 8
-40 36 -70 63 -31 27 -56 57 -56 66 0 9 -5 21 -11 27 -6 6 -12 28 -12 49 -2
36 -4 39 -40 46 -22 4 -53 4 -70 0 l-32 -8 1 -110 c0 -108 1 -109 24 -109 16
0 31 11 45 31 19 28 23 30 53 20 43 -15 152 -112 152 -137 0 -10 -6 -19 -14
-19 -22 0 -25 -26 -17 -113 0 -8 12 -19 25 -25 17 -7 24 -19 24 -34 -5 -90 14
-117 56 -77 20 19 22 27 15 58 -5 20 -9 53 -9 74 0 32 -5 41 -30 55 -17 10
-30 25 -30 36 0 16 3 17 12 8 15 -15 51 -15 65 -1 9 9 18 5 35 -16 13 -15 49
-54 80 -86 65 -67 84 -72 142 -33 41 28 41 29 -9 59 -15 9 -11 14 25 38 54 35
91 35 127 -1 15 -16 37 -34 48 -40 16 -9 17 -13 6 -21 -8 -5 -11 -17 -7 -28 4
-11 4 -28 0 -37 -8 -20 -34 -21 -34 -1 0 20 -32 35 -74 35 -36 0 -44 -11 -27
-38 5 -8 3 -29 -5 -50 -13 -35 -12 -38 14 -60 38 -32 36 -29 105 -117 35 -44
71 -86 80 -94 10 -7 17 -23 17 -36 0 -12 13 -42 30 -66 16 -24 30 -50 30 -56
0 -7 11 -13 25 -13 16 0 25 6 25 16 0 27 35 11 38 -18 3 -29 28 -44 46 -29 8
7 20 6 37 -3 13 -7 31 -10 38 -8 11 4 12 -3 7 -29 -5 -29 -2 -36 18 -45 21
-10 27 -7 52 20 18 19 36 30 48 28 11 -3 16 0 12 7 -4 6 -16 11 -27 11 -10 0
-19 5 -19 10 0 6 7 10 15 10 8 0 15 5 15 11 0 20 18 -1 39 -46 17 -35 26 -45
45 -45 14 0 28 -4 31 -10 3 -5 20 -10 37 -10 21 0 31 -6 35 -20 8 -30 23 -24
23 10 0 17 4 30 9 30 5 0 7 -10 4 -21 -4 -14 0 -27 12 -35 11 -8 15 -19 11
-30 -8 -22 20 -65 38 -58 22 8 66 -46 66 -81 0 -82 39 -135 59 -82 5 12 21 49
36 81 26 57 26 61 14 118 -11 48 -21 66 -53 94 -21 19 -44 35 -50 35 -6 1 3 5
19 9 29 7 29 8 -10 9 -45 1 -74 14 -56 25 6 4 11 4 11 0 0 -3 6 -1 14 5 8 7
17 8 20 3 12 -20 67 -22 93 -5 37 24 102 95 103 111 0 7 5 10 10 7 6 -3 10 2
10 13 0 24 86 72 129 72 42 0 54 -41 20 -69 -18 -14 -21 -22 -12 -32 6 -8 11
-38 12 -66 1 -48 -2 -54 -28 -67 -27 -14 -50 -59 -67 -129 -3 -15 -13 -31 -22
-36 -17 -10 -8 -31 15 -31 8 0 27 -6 41 -14 15 -8 55 -19 90 -25 35 -7 69 -14
76 -17 18 -7 48 24 42 45 -3 9 -6 41 -7 71 -1 30 -6 80 -11 110 -7 38 -6 66 1
92 11 36 14 38 55 38 23 0 64 7 90 16 28 10 62 14 82 11 19 -3 34 -2 34 4 0 5
-4 9 -9 9 -14 0 -21 28 -13 50 4 11 37 44 74 73 36 28 101 81 144 115 43 35
88 68 101 73 13 5 52 36 88 69 35 33 71 60 79 60 25 0 39 -41 43 -125 5 -102
21 -119 120 -132 99 -12 204 -10 239 5 40 17 68 65 58 100 -4 15 -7 30 -6 35
1 4 -2 7 -8 7 -16 0 -11 47 7 65 12 12 26 15 52 11 20 -3 97 -12 171 -21 177
-20 197 -24 212 -42 11 -14 -3 -31 -97 -121 -61 -58 -132 -122 -160 -142 -69
-52 -217 -199 -213 -212 2 -6 24 -19 48 -28 56 -22 56 -24 54 -270 -2 -194
-13 -263 -45 -281 -28 -15 -247 11 -273 32 -19 16 -21 27 -21 141 0 138 -8
160 -62 172 -62 14 -66 4 -64 -143 2 -130 2 -131 -22 -142 -18 -8 -49 -9 -111
-1 -75 8 -89 13 -107 36 -27 34 -35 33 -59 -6 -24 -40 -28 -129 -6 -147 8 -7
18 -27 21 -44 4 -18 15 -40 24 -51 18 -20 53 -166 39 -166 -24 0 1 -124 28
-134 16 -6 19 -37 5 -52 -5 -5 -11 -25 -13 -44 -3 -31 1 -36 37 -55 49 -26 57
-56 20 -73 -14 -7 -34 -12 -44 -12 -9 0 -26 -7 -37 -15 -17 -13 -1 -14 146
-15 l165 0 -33 20 c-28 17 -33 25 -30 53 3 29 6 32 33 31 54 -3 93 -12 118
-29 20 -13 30 -14 46 -6 30 17 48 13 73 -13 31 -33 109 -59 140 -47 32 13 138
126 138 149 0 10 -5 23 -11 29 -8 8 -10 48 -7 125 6 127 25 188 58 188 19 0
20 -7 20 -122 0 -137 6 -156 39 -139 11 7 21 15 21 20 0 4 44 50 98 103 162
159 206 199 233 213 14 8 37 29 51 47 15 18 42 50 62 71 20 20 36 40 36 45 0
4 16 20 35 35 39 31 45 56 15 64 -29 8 -24 38 13 80 18 21 47 56 64 79 l32 40
-24 18 c-26 19 -38 75 -36 164 0 30 -2 58 -5 63 -8 14 -57 -16 -98 -61 -28
-31 -46 -43 -69 -44 -31 -1 -32 1 -37 46 -3 26 -15 60 -26 75 -24 33 -38 67
-24 58 6 -4 7 26 4 80 -4 59 -3 85 5 85 17 0 13 27 -6 34 -15 6 -15 8 2 20 13
9 15 19 10 37 -11 34 -12 78 -1 71 5 -3 7 16 3 45 -4 32 -1 65 9 93 23 67 15
76 -72 83 -101 9 -110 15 -118 79 -8 60 -16 68 -68 68 l-38 0 0 -49 c0 -69
-13 -77 -98 -63 -37 7 -92 14 -122 18 -30 3 -67 10 -82 16 -20 7 -32 6 -50 -6
-13 -9 -51 -18 -83 -21 -33 -3 -103 -12 -155 -19 -52 -7 -98 -12 -102 -10 -4
3 -29 5 -57 5 -47 2 -52 4 -58 28 -3 14 -12 36 -20 48 -11 16 -12 33 -6 70 5
26 6 59 3 73 -9 35 -1 132 12 147 6 7 29 13 51 13 22 0 56 5 74 12 30 11 33
15 33 55 0 29 5 45 15 49 12 5 9 13 -15 42 -17 20 -30 48 -30 62 0 34 -10 47
-42 55 -21 5 -28 14 -30 38 -2 18 -8 31 -15 30 -6 -1 -27 13 -46 32 -40 40
-71 45 -88 14 -9 -17 -17 -20 -43 -16 -25 4 -35 1 -44 -14 -7 -10 -21 -19 -32
-19 -11 0 -20 -4 -20 -10 0 -17 -22 -11 -47 12 -19 18 -23 19 -23 5 0 -9 5
-19 10 -22 6 -3 10 -14 10 -23 0 -8 18 -33 40 -53 30 -28 40 -45 40 -68 0 -20
-5 -31 -14 -31 -8 0 -17 -11 -20 -25 -7 -27 -90 -94 -118 -95 -17 0 -58 44
-58 64 -1 17 -47 66 -63 66 -20 0 -47 33 -47 58 0 11 12 35 27 52 20 25 26 43
27 82 1 31 7 54 16 62 37 29 52 90 28 114 -19 19 -38 14 -68 -18 -30 -32 -56
-40 -46 -14 3 9 6 34 6 56 0 35 2 39 15 28 8 -7 15 -8 15 -4 0 5 16 14 35 20
28 9 37 8 50 -5 14 -15 18 -15 43 0 21 12 32 13 45 5 21 -13 39 3 43 39 2 21
-1 24 -20 19 -14 -3 -27 1 -35 10 -19 23 -7 44 22 39 40 -8 40 13 1 43 -29 23
-39 26 -52 16 -45 -33 -65 -21 -55 31 4 19 1 32 -8 38 -23 15 -36 10 -69 -22
l-31 -32 -24 23 c-13 13 -22 26 -20 30 2 4 -11 20 -29 36 -18 16 -35 36 -37
43 -3 9 -23 15 -54 17 -28 2 -51 8 -53 13 -2 5 -11 7 -20 4 -30 -11 -59 -38
-54 -51 6 -18 -19 -14 -37 6 -9 11 -28 22 -43 26 -31 7 -35 21 -13 50 8 11 13
28 9 38 -3 12 1 20 13 24 39 13 69 29 95 52 43 39 106 14 86 -34 -2 -3 5 -10
14 -15 13 -7 25 -5 43 8 28 21 30 32 10 59 -19 26 -19 29 9 59 19 20 28 24 47
17 47 -17 79 -22 79 -12 0 13 -53 39 -87 43 -29 3 -75 25 -58 28 6 1 35 0 66
-1 42 -1 58 2 62 13 3 9 -1 18 -10 22 -14 5 -14 8 4 20 11 8 26 35 33 60 9 32
16 42 21 33 6 -9 9 -7 9 8 0 12 6 26 13 32 14 12 57 5 57 -9 0 -5 6 -9 13 -10
6 0 23 -14 36 -30 20 -26 22 -33 11 -58 -8 -21 -17 -27 -30 -24 -10 3 -27 0
-37 -7 -15 -10 -13 -10 15 -6 17 3 32 2 32 -3 0 -5 11 -12 24 -15 13 -3 31 -9
40 -12 10 -4 16 -1 16 9 0 10 7 14 23 10 18 -4 19 -3 7 6 -21 15 4 15 32 0 17
-9 18 -13 7 -20 -15 -10 -16 -9 59 -12 28 -1 52 1 52 6 0 4 11 0 24 -8 19 -13
29 -14 45 -6 11 6 28 11 38 11 11 0 34 14 51 31 33 32 50 34 38 3 -3 -9 -15
-18 -26 -21 -11 -3 -20 -7 -20 -10 0 -14 22 -43 33 -43 7 0 6 4 -3 10 -12 8
-11 10 7 10 16 0 21 -4 17 -15 -4 -10 0 -15 15 -15 12 0 24 7 27 15 4 8 18 15
32 15 20 0 23 3 14 12 -16 16 -15 28 3 28 8 0 15 -5 15 -11 0 -5 5 -7 10 -4 6
3 10 -1 10 -9 0 -9 -4 -16 -10 -16 -5 0 -10 -4 -10 -10 0 -5 7 -10 16 -10 8 0
12 -5 9 -10 -3 -5 1 -10 9 -10 9 0 16 5 16 10 0 6 14 10 31 10 24 0 30 4 25
15 -3 8 -1 15 4 15 6 0 10 7 10 15 0 19 -14 19 -34 0 -20 -20 -22 -20 -56 15
-20 20 -35 28 -47 23 -14 -5 -14 -2 4 13 65 57 65 57 75 40 5 -9 25 -32 45
-51 20 -19 33 -35 28 -35 -4 0 -2 -6 4 -14 10 -11 8 -17 -6 -25 -16 -9 -15
-10 8 -11 35 0 64 -23 56 -45 -5 -12 -14 -15 -30 -12 -37 9 -397 51 -517 61
-25 2 -85 11 -135 19 -133 23 -179 25 -182 7 -1 -8 4 -23 11 -33 12 -16 18
-17 37 -7 34 19 136 7 163 -19 25 -24 94 -29 125 -9 15 9 43 9 122 -1 201 -23
233 -30 250 -53 11 -13 19 -17 23 -10 5 8 18 7 46 -4 22 -9 47 -14 55 -11 8 4
17 2 21 -4 4 -6 11 -6 20 2 12 9 14 5 15 -27 1 -83 11 -104 49 -104 29 0 30 1
30 46 0 81 35 109 77 60 25 -29 28 -76 17 -353 l-6 -183 21 0 c18 0 21 -4 16
-19 -4 -14 0 -23 16 -31 33 -18 9 -30 -40 -19 -24 5 -50 8 -58 5 -7 -3 -13 1
-13 9 0 20 -24 19 -40 0 -18 -22 1 -39 43 -41 17 -1 39 -4 48 -8 9 -4 35 1 57
11 34 14 40 21 36 38 -3 13 1 27 10 34 9 8 16 24 16 36 0 13 6 26 13 28 8 4 7
6 -3 6 -8 1 -2 8 13 16 29 15 43 14 201 -14 27 -4 68 -6 92 -3 30 3 44 1 44
-7 0 -7 10 -12 23 -11 61 5 117 -1 131 -15 12 -12 20 -13 35 -5 24 12 88 13
95 1 3 -4 35 -9 70 -9 36 -1 92 -8 124 -17 32 -8 77 -14 98 -14 84 3 199 -65
242 -143 23 -40 40 -46 51 -16 5 13 39 45 75 73 36 27 66 55 66 61 0 7 -30 14
-77 18 -43 4 -121 14 -174 22 -52 7 -140 16 -195 19 -159 8 -217 15 -249 27
l-29 12 34 8 c35 7 174 -6 241 -23 56 -14 109 -11 115 6 4 10 11 12 22 6 10
-5 55 -12 102 -15 47 -4 98 -9 114 -12 69 -14 174 -18 207 -8 22 6 42 -20 35
-44 -4 -11 -19 -22 -34 -25 -15 -4 -40 -18 -57 -32 -31 -27 -38 -34 -244 -225
-117 -109 -201 -201 -201 -221 0 -25 34 0 135 100 60 60 136 133 169 163 32
29 83 77 113 106 31 28 59 52 64 52 13 0 28 -35 21 -47 -4 -6 -7 -82 -7 -169
l0 -158 25 -8 c14 -4 58 -13 98 -19 61 -9 75 -15 84 -34 6 -13 23 -29 39 -35
18 -8 26 -17 22 -26 -3 -8 3 -24 13 -35 13 -15 19 -36 19 -72 0 -50 1 -51 35
-58 19 -4 179 -15 355 -24 176 -9 410 -22 519 -30 183 -13 200 -13 211 2 10
14 25 15 94 10 94 -7 163 -25 158 -41 -4 -13 -72 -14 -179 -2 l-78 8 0 -25 c0
-23 3 -24 93 -31 104 -8 162 -16 328 -44 101 -16 120 -17 143 -5 25 13 36 43
16 43 -5 0 -10 15 -10 34 0 43 -4 45 -82 54 -67 8 -95 32 -36 32 27 0 34 4 35
21 3 38 23 47 23 11 0 -18 3 -32 8 -32 4 1 39 13 77 28 60 23 73 33 89 65 14
30 21 36 32 26 8 -6 14 -22 14 -35 0 -12 10 -30 21 -38 16 -11 20 -21 15 -40
-3 -14 -2 -26 3 -26 5 0 19 -16 30 -36 16 -27 19 -40 11 -49 -9 -11 -4 -16 22
-24 18 -5 52 -17 75 -25 52 -19 148 -19 164 0 6 8 9 20 5 29 -3 9 3 19 16 26
22 12 22 12 -10 39 -18 14 -32 30 -32 34 0 4 29 40 65 81 51 58 65 82 65 107
0 51 32 139 57 155 46 30 78 -10 48 -59 -11 -20 -19 -60 -23 -115 -5 -92 -1
-85 -110 -186 -26 -25 -30 -36 -30 -75 1 -26 0 -56 -1 -67 -1 -11 1 -32 4 -46
5 -21 -2 -36 -40 -80 -27 -32 -58 -57 -75 -62 -34 -9 -36 -19 -14 -62 8 -16
13 -38 10 -49 -3 -13 4 -27 22 -43 53 -46 59 -54 72 -96 20 -63 20 -66 -2
-105 -17 -31 -20 -55 -21 -159 0 -105 -3 -123 -16 -124 -9 -1 -23 -2 -31 -3
-8 0 -21 -14 -29 -31 -8 -16 -22 -36 -32 -45 -14 -12 -16 -26 -12 -75 5 -45 8
-55 14 -40 5 12 6 0 2 -30 -15 -120 -17 -213 -5 -228 6 -7 9 -31 9 -55 -1 -28
2 -42 11 -42 11 0 15 36 16 131 0 15 19 21 44 13 9 -3 4 -12 -15 -30 -15 -14
-22 -23 -15 -19 7 4 12 0 12 -10 0 -9 -4 -13 -10 -10 -5 3 -10 -3 -10 -14 0
-11 7 -21 16 -23 18 -3 44 -68 44 -109 0 -33 28 -66 60 -71 36 -5 93 57 86 93
-8 43 14 63 60 55 39 -6 72 -9 212 -21 52 -5 78 -12 89 -24 9 -12 25 -17 41
-14 42 6 94 6 132 -2 19 -3 69 -10 110 -15 96 -11 130 -24 130 -50 0 -11 5
-20 11 -20 5 0 7 -5 4 -10 -12 -19 25 -22 71 -6 52 18 73 13 51 -12 -8 -10
-17 -30 -20 -46 -4 -23 2 -35 35 -67 22 -22 46 -39 54 -39 7 0 19 -10 25 -22
7 -13 19 -29 28 -36 14 -11 10 -13 -23 -8 -22 3 -43 11 -47 18 -6 9 -13 9 -32
-1 -29 -15 -122 -9 -184 13 -21 7 -55 16 -77 20 -33 6 -38 5 -33 -8 4 -10 1
-16 -9 -16 -10 0 -14 -6 -11 -14 3 -8 11 -33 17 -55 l11 -41 269 0 c205 0 270
3 273 13 4 9 8 9 14 1 6 -8 96 -12 300 -13 263 -2 292 0 287 14 -14 35 -81 47
-109 19 -13 -13 -21 -14 -38 -6 -12 6 -91 13 -176 16 -84 3 -158 10 -165 15
-7 6 -21 8 -32 5 -12 -3 -26 1 -33 10 -15 18 -38 21 -43 5 -2 -6 -22 -14 -45
-18 -39 -8 -42 -6 -48 17 -4 15 0 32 10 46 8 11 28 39 43 61 15 22 32 44 39
48 22 14 15 24 -27 41 -36 14 -39 18 -30 36 9 16 18 19 54 16 51 -5 127 -24
142 -37 12 -10 55 -12 105 -3 50 8 182 -13 192 -31 4 -8 23 -17 42 -21 43 -8
65 -32 62 -69 -2 -34 25 -43 31 -11 5 24 -17 66 -35 66 -10 0 -12 6 -7 23 4
12 7 30 8 40 1 13 44 47 60 47 2 0 7 -64 8 -97 0 -28 27 -34 93 -22 48 9 172
6 205 -5 8 -2 44 -7 80 -11 170 -15 354 -42 388 -55 12 -5 22 -18 23 -27 0
-16 2 -15 9 2 8 19 9 19 9 -2 1 -27 -32 -38 -84 -30 -25 4 -38 1 -51 -14 -31
-34 -138 -17 -203 33 -33 25 -77 24 -84 -2 -3 -12 -14 -20 -25 -20 -11 0 -23
-7 -26 -16 -4 -12 -14 -15 -34 -11 -28 5 -62 -7 -74 -28 -7 -12 -42 -12 -114
0 -33 6 -42 4 -47 -9 -6 -15 55 -16 706 -16 557 0 716 3 726 13 11 9 14 9 18
0 3 -10 38 -13 124 -13 l119 0 0 655 0 655 -28 0 c-16 0 -32 -3 -35 -7 -4 -3
-27 -8 -52 -9 l-45 -3 0 35 c0 27 -5 37 -20 41 -11 3 -17 9 -14 14 3 5 0 9 -5
9 -6 0 -11 5 -11 10 0 15 16 12 33 -5 11 -11 16 -12 19 -3 3 8 31 12 81 13
l77 0 0 158 c0 155 0 157 -20 145 -15 -10 -25 -10 -38 -2 -24 16 -12 29 25 28
l32 -1 1 879 c0 624 -3 885 -11 899 -8 15 -8 24 0 32 6 6 11 14 11 18 0 12
-64 17 -77 7 -13 -10 -82 -13 -155 -7 -44 3 -48 11 -44 91 3 61 17 88 47 88
11 0 19 2 19 5 0 3 -36 76 -79 163 l-79 158 -198 12 c-135 8 -200 16 -206 25
-13 20 -2 72 16 75 21 4 20 24 -1 51 -15 18 -40 25 -153 39 -117 16 -129 19
-90 24 24 4 46 12 48 17 2 6 14 11 27 11 13 0 31 10 39 22 18 25 21 53 6 43
-5 -3 -10 -1 -10 4 0 6 9 11 20 11 11 0 20 -4 20 -10 0 -5 6 -10 13 -10 7 0
18 -9 25 -21 15 -24 37 -20 37 7 0 16 6 18 34 16 19 -1 37 2 40 7 11 17 91 17
91 0 0 -7 -10 -9 -26 -5 -21 6 -25 4 -22 -11 2 -10 11 -18 20 -18 9 0 26 -13
38 -28 28 -36 40 -34 40 6 1 40 22 71 38 55 8 -8 15 -8 27 2 13 10 15 9 15 -7
0 -11 3 -23 8 -27 4 -4 7 -17 7 -28 0 -16 7 -21 28 -22 16 -1 32 -8 36 -15 9
-13 103 -12 117 2 7 7 -20 10 -83 10 -29 0 -33 3 -32 26 1 17 3 20 6 9 3 -14
15 -18 54 -18 l49 0 0 40 c0 22 5 40 10 40 7 0 7 6 0 20 -9 18 -8 20 16 20 25
0 26 -2 21 -37 -3 -21 -3 -30 -1 -21 10 32 24 19 24 -22 0 -27 -4 -40 -14 -40
-7 0 -19 -6 -25 -14 -16 -20 14 -36 52 -29 20 4 27 1 27 -11 0 -12 8 -15 33
-12 30 3 32 6 32 40 0 40 2 42 30 23 31 -21 85 -38 85 -26 0 16 -31 59 -43 59
-5 0 -16 -8 -23 -17 -12 -16 -13 -16 -14 -2 0 9 -7 22 -15 29 -8 7 -15 16 -15
21 0 14 70 23 83 10 14 -14 27 -14 27 -1 0 6 -8 10 -17 10 -17 1 -17 1 0 14
22 17 23 74 0 83 -11 4 -24 -3 -38 -21 -21 -27 -22 -27 -28 -7 -3 12 -1 21 3
21 15 0 31 72 19 86 -6 7 -8 18 -5 23 8 12 -32 61 -49 61 -24 0 -45 41 -45 90
0 59 11 64 27 13 9 -28 9 -40 0 -45 -6 -4 -8 -11 -3 -15 5 -4 11 -2 13 5 3 6
11 12 19 12 8 0 14 8 14 18 0 13 2 14 9 3 5 -8 11 -9 15 -3 3 6 2 13 -4 17
-17 11 -11 31 13 44 l22 11 -24 -6 c-20 -5 -23 -3 -18 11 4 9 7 29 7 43 1 23
2 25 13 11 7 -9 18 -14 26 -11 10 3 12 -4 9 -32 -2 -20 0 -32 5 -27 4 4 7 26
5 47 -3 34 -7 40 -33 45 -16 3 -29 10 -27 17 1 7 -4 12 -12 12 -17 0 -15 59 2
103 8 18 8 35 2 52 -10 27 -30 34 -30 10 0 -8 5 -15 10 -15 18 0 10 -25 -11
-35 -12 -6 -27 -28 -35 -49 -11 -34 -11 -41 3 -51 20 -15 13 -49 -10 -53 -10
-2 -25 5 -32 15 -13 17 -14 17 -20 1 -8 -21 -35 -24 -35 -4 0 8 -13 17 -30 21
-16 4 -30 11 -30 16 0 16 32 23 51 11 26 -16 27 -16 34 18 7 32 22 39 31 15
12 -29 23 -14 17 22 -7 46 -11 52 -24 33 -7 -11 -9 -7 -7 15 2 22 9 31 24 33
16 2 20 8 17 23 -3 10 -10 19 -15 19 -5 0 -6 5 -2 12 5 8 13 5 25 -10 20 -25
35 -28 42 -9 6 15 -21 52 -43 60 -11 4 -11 6 3 6 14 1 17 6 12 21 -4 13 -1 22
9 26 18 7 21 45 7 72 -5 9 -12 25 -15 35 -8 24 -23 21 -30 -6 -4 -16 -17 -27
-43 -34 l-38 -10 57 -2 c51 -1 56 -3 51 -21 -3 -11 -9 -20 -14 -20 -5 0 -9 -9
-9 -20 0 -15 -7 -20 -26 -20 -27 0 -54 -20 -54 -41 0 -8 -15 -10 -48 -7 -45 4
-47 3 -46 -19 1 -27 14 -44 14 -19 0 12 5 16 16 12 9 -3 18 -6 20 -6 2 0 4 -5
4 -11 0 -6 11 -24 25 -41 40 -47 33 -119 -11 -110 -18 3 -22 8 -14 17 5 6 7
15 3 19 -4 4 3 9 15 13 36 9 28 35 -10 31 -28 -3 -34 -8 -41 -39 -7 -29 -14
-38 -35 -42 -17 -3 -34 1 -46 11 -14 13 -20 14 -23 5 -5 -15 -43 -18 -43 -3 0
5 -8 9 -17 8 -35 -3 -83 15 -85 31 0 9 -2 21 -2 28 -3 25 -16 24 -28 -1 -8
-19 -17 -26 -30 -23 -16 5 -18 -2 -18 -64 0 -63 -9 -85 -25 -59 -6 9 -43 -6
-56 -23 -6 -8 -70 20 -80 36 -3 5 -10 9 -15 10 -11 2 -6 27 8 44 5 7 6 18 2
25 -4 7 2 4 14 -6 26 -22 31 -3 7 28 -13 18 -16 18 -39 2 -14 -9 -32 -16 -41
-16 -12 0 -12 3 4 19 10 10 25 21 32 25 8 3 1 4 -16 1 -44 -8 -47 -8 -82 -7
-26 2 -33 6 -33 22 0 12 7 20 17 20 13 0 14 3 5 12 -17 17 -30 0 -34 -47 l-3
-40 38 3 c37 4 51 -11 22 -22 -10 -4 -15 -20 -15 -51 0 -25 -4 -45 -10 -45 -5
0 -10 18 -10 40 0 32 -3 38 -12 30 -46 -38 -62 -50 -70 -50 -14 0 -9 22 10 36
15 12 15 15 2 23 -12 8 -12 13 -2 23 9 9 12 9 12 -5 0 -9 5 -17 10 -17 13 0
13 57 1 65 -6 3 -14 -3 -20 -12 -6 -10 -11 -13 -11 -8 0 6 -4 3 -9 -4 -8 -12
-12 -10 -22 12 -17 39 -29 33 -29 -13 0 -29 4 -40 15 -40 8 0 15 -3 16 -7 9
-60 6 -73 -16 -73 -12 0 -32 9 -45 20 -30 26 -60 26 -60 0 0 -11 -4 -20 -10
-20 -5 0 -10 -5 -10 -10 0 -11 40 8 52 25 5 6 12 5 20 -3 9 -9 9 -12 -4 -12
-15 0 -28 -19 -28 -41 0 -17 15 -9 25 13 15 32 33 33 45 4 11 -29 28 -34 37
-10 4 12 8 12 13 4 5 -9 10 -6 15 9 3 11 12 21 20 21 7 0 15 7 19 15 3 8 10
15 16 15 17 0 11 -47 -10 -82 -21 -34 -28 -108 -10 -108 18 0 10 -35 -11 -48
-12 -7 -23 -11 -26 -8 -3 3 -15 0 -26 -6 l-21 -11 22 -8 c12 -5 22 -16 22 -25
0 -15 -4 -14 -25 6 -24 23 -25 23 -45 5 -11 -10 -20 -29 -20 -42 0 -12 -4 -23
-10 -23 -5 0 -10 12 -10 26 0 17 14 38 43 65 23 21 45 39 50 39 10 0 9 30 -1
30 -5 0 -19 -11 -32 -25 -17 -18 -30 -23 -47 -19 -20 5 -23 2 -24 -22 -1 -16
-1 -33 0 -38 3 -16 -10 -59 -15 -53 -3 3 -12 23 -19 44 l-14 38 -1 -47 c0 -45
6 -53 32 -49 4 0 4 -9 -1 -22 -4 -12 -18 -23 -31 -25 -20 -3 -21 -1 -15 27 5
24 3 31 -9 31 -23 0 -20 -52 4 -80 11 -13 20 -18 20 -12 0 7 7 12 16 12 8 0
12 5 9 10 -3 6 -1 10 5 10 6 0 15 11 20 25 11 30 26 32 33 5 4 -14 0 -20 -13
-20 -21 0 -32 -34 -17 -49 8 -8 8 -14 -1 -23 -17 -17 -15 -39 6 -54 16 -13 16
-13 0 -14 -33 0 -19 -31 22 -48 22 -9 40 -21 40 -26 0 -9 -176 0 -191 10 -14
8 -11 32 7 59 21 32 10 83 -19 95 l-22 9 23 7 c14 4 22 14 22 30 0 31 -17 40
-23 12 -3 -19 -5 -17 -6 6 -1 27 -2 28 -14 12 -12 -17 -14 -17 -34 1 l-21 18
21 19 c20 19 20 19 13 -9 -6 -23 -5 -25 6 -14 7 8 14 29 15 48 1 19 8 38 14
41 6 4 7 10 2 13 -5 3 -8 33 -7 66 1 59 -12 82 -23 41 -7 -27 -39 -22 -35 5 3
17 2 17 -15 4 -10 -7 -22 -20 -26 -27 -5 -8 -17 -10 -29 -6 -17 5 -20 3 -15
-11 4 -9 7 -21 7 -26 0 -5 5 -9 10 -9 6 0 10 7 10 15 0 18 17 20 23 3 3 -10 7
-10 20 0 13 11 16 10 23 -10 4 -13 7 -31 5 -40 -1 -10 3 -18 8 -18 6 0 11 -4
11 -9 0 -5 -14 -3 -31 6 -34 17 -47 13 -27 -8 7 -8 14 -23 15 -34 1 -11 0 -14
-3 -7 -3 6 -12 12 -19 12 -7 0 -15 9 -18 20 -3 11 -9 19 -14 18 -4 -1 -18 4
-31 11 -13 7 -31 9 -40 5 -9 -4 -25 -6 -35 -5 -10 1 -25 -3 -32 -9 -12 -10
-16 -9 -21 4 -3 9 -12 16 -20 16 -8 0 -14 5 -14 11 0 6 17 9 43 6 23 -2 34 -2
23 0 -10 3 -35 23 -55 44 -33 36 -39 39 -64 30 -17 -7 -28 -7 -32 -1 -4 6 -10
10 -16 10 -5 0 -4 -9 3 -20 12 -19 3 -43 -10 -25 -10 14 -80 37 -91 31 -5 -4
-17 2 -27 11 -17 17 -77 43 -101 43 -25 0 -93 -35 -93 -48 0 -21 -49 -6 -80
24 -21 19 -34 23 -65 20 -22 -3 -47 -7 -57 -11 -18 -7 -31 -42 -17 -51 18 -10
9 -24 -16 -24 -24 0 -25 2 -25 74 0 41 4 78 10 81 5 3 9 20 7 38 -2 26 3 34
28 46 17 8 33 19 37 25 7 11 -8 36 -23 36 -17 0 -129 73 -129 85 0 6 -33 27
-72 45 -40 18 -101 46 -135 62 -34 16 -100 52 -145 80 -79 49 -86 52 -148 50
-36 -1 -78 4 -94 10 -16 6 -88 72 -160 146 -178 183 -398 399 -424 417 -11 9
-47 59 -78 113 -32 53 -76 122 -99 152 -22 30 -45 67 -51 81 -17 37 -93 138
-217 287 -22 25 -49 62 -62 81 -30 47 -170 191 -215 222 -50 35 -109 65 -155
79 -22 7 -51 23 -65 35 -14 13 -43 32 -66 43 -56 28 -155 95 -195 132 -19 16
-38 30 -44 30 -11 0 -95 57 -105 71 -3 4 -34 24 -70 45 -36 21 -125 77 -199
126 -74 48 -150 91 -168 94 -18 3 -37 12 -41 20 -7 13 -173 94 -193 94 -11 0
-88 32 -132 55 -16 8 -35 15 -43 15 -8 0 -31 9 -51 20 -21 11 -46 20 -55 20
-10 0 -18 4 -18 8 0 5 -19 16 -42 27 -24 10 -75 33 -115 51 -39 18 -74 29 -78
26 -3 -4 -9 -1 -13 5 -4 6 -25 18 -47 26 -77 29 -110 42 -115 47 -3 3 -16 11
-30 18 -14 7 -50 28 -80 47 -30 19 -62 37 -70 41 -8 4 -37 26 -65 49 -71 59
-150 109 -230 146 -39 18 -71 36 -73 41 -2 4 -15 24 -29 44 -23 35 -25 45 -24
153 1 66 6 120 12 128 7 7 26 13 43 13 34 1 95 29 63 30 -27 0 -30 22 -12 84
12 41 25 61 48 78 37 26 68 62 80 92 7 17 6 19 -4 9 -7 -7 -19 -13 -26 -13
-11 0 -11 5 1 28 7 15 17 41 20 59 4 18 15 42 25 55 10 13 21 46 25 73 4 28
14 75 22 105 8 30 14 65 14 77 0 20 -3 22 -19 14 -10 -6 -28 -27 -40 -47 -12
-20 -24 -34 -28 -31 -3 3 4 21 16 40 11 19 21 42 21 51 0 9 5 16 10 16 18 0
11 22 -9 27 -18 5 -18 6 1 56 19 48 19 61 9 172 -13 145 -32 248 -54 295 -9
19 -29 64 -45 100 -26 58 -60 110 -134 205 -31 39 -171 174 -181 175 -5 0 -33
20 -64 45 -67 55 -160 107 -228 128 -94 30 -264 49 -365 41z m876 -2467 c4
-12 7 -35 6 -52 -1 -29 -1 -28 12 8 18 48 15 46 56 49 29 3 37 -2 62 -38 16
-22 33 -58 38 -80 11 -45 -4 -268 -21 -329 -39 -136 -80 -236 -128 -307 -15
-24 -39 -65 -52 -93 -13 -27 -32 -59 -43 -70 -17 -19 -80 -103 -101 -136 -48
-76 -117 -179 -134 -201 -12 -14 -21 -31 -21 -37 0 -5 -11 -27 -25 -47 -14
-20 -25 -45 -25 -55 0 -11 -9 -27 -20 -36 -13 -11 -20 -30 -20 -51 0 -18 -11
-92 -24 -165 -14 -73 -28 -194 -32 -269 -7 -133 -15 -162 -29 -95 -16 78 -27
107 -40 107 -10 0 -12 9 -8 34 3 20 -2 58 -12 91 -16 51 -24 61 -84 102 -80
56 -141 112 -141 130 0 29 -46 8 -107 -50 -18 -17 -35 -29 -37 -26 -5 5 36 51
78 87 26 21 26 23 10 48 -12 17 -24 24 -36 21 -15 -4 -18 -1 -13 13 3 11 1 29
-5 41 -8 14 -9 24 -2 31 7 7 14 3 21 -11 7 -12 18 -21 26 -21 8 0 15 -8 15
-18 0 -11 11 -32 25 -48 14 -16 25 -35 25 -41 0 -7 4 -13 9 -13 5 0 48 -36 94
-80 47 -44 87 -80 89 -80 3 0 -4 34 -15 76 l-21 75 23 62 c32 89 67 146 96
153 28 7 28 7 16 52 -6 19 -31 52 -61 79 -53 48 -118 139 -130 183 -6 23 -12
25 -67 28 l-61 3 -41 -48 c-55 -64 -70 -112 -48 -158 11 -23 14 -42 8 -56 -7
-20 -12 -15 -44 44 -20 36 -37 67 -37 70 0 11 -73 161 -111 227 -21 38 -43 90
-49 115 -6 26 -18 60 -26 77 -47 91 -85 298 -55 298 13 0 20 -27 19 -73 0 -30
8 -46 41 -82 22 -24 43 -56 47 -72 4 -15 15 -39 24 -53 9 -14 23 -35 31 -46
95 -145 153 -188 284 -211 33 -6 25 12 -10 20 -11 3 0 5 24 6 35 1 42 4 37 17
-3 8 -2 12 3 9 5 -3 13 -1 16 5 4 6 15 8 26 5 15 -5 19 -1 19 19 0 16 -5 24
-12 21 -7 -3 -20 -1 -28 4 -23 15 13 48 50 46 20 -1 30 3 30 12 0 8 17 21 38
30 32 14 34 17 17 23 -16 6 -12 9 20 15 22 5 45 9 50 9 16 1 37 25 31 35 -3 4
4 17 15 27 12 11 25 29 30 42 5 13 14 20 19 17 8 -5 8 -11 0 -20 -8 -10 -7
-14 2 -18 10 -4 8 -9 -4 -17 -10 -6 -18 -15 -18 -19 0 -10 -55 -66 -103 -107
-18 -15 -51 -49 -74 -76 -24 -27 -43 -46 -43 -42 0 4 -9 -3 -20 -16 -25 -29
-25 -33 0 -20 37 20 262 248 256 259 -4 6 -1 9 7 5 8 -3 28 13 50 40 39 46 48
72 22 62 -8 -3 -15 -1 -15 5 0 6 8 9 18 7 20 -3 34 7 103 77 104 105 164 242
175 401 5 70 10 91 20 87 7 -3 16 -15 20 -26z m-9739 -1464 c-3 -21 -9 -48
-12 -60 -5 -16 0 -29 19 -48 32 -32 33 -51 4 -59 -34 -9 -38 -8 -38 9 0 8 5
15 10 15 6 0 5 8 -2 20 -13 20 -58 28 -58 10 0 -13 -56 -13 -80 0 -18 10 -18
11 4 35 13 14 28 25 34 25 17 0 82 60 82 76 0 8 10 14 21 14 19 0 21 -4 16
-37z m8141 -1053 c-10 -15 -10 -27 -1 -49 9 -25 8 -31 -6 -36 -13 -5 -12 -9 9
-26 14 -11 40 -26 57 -35 65 -32 13 -40 -125 -18 -29 4 -33 9 -29 26 5 16 3
18 -6 9 -6 -6 -16 -11 -21 -11 -6 0 -5 5 1 11 6 6 9 17 6 25 -7 18 15 47 68
89 50 39 65 44 47 15z m-89 -207 c6 -10 11 -12 11 -5 0 13 61 17 73 5 4 -4 25
-6 47 -6 34 0 40 -3 40 -21 1 -44 2 -303 1 -338 -1 -23 -9 -46 -20 -57 -11
-11 -21 -30 -23 -43 -2 -15 -9 -21 -18 -19 -30 9 -196 30 -239 30 -35 1 -42 4
-37 17 3 9 6 24 6 34 0 16 4 17 32 9 18 -5 34 -9 35 -9 2 0 5 160 5 218 -1 41
-1 52 -1 135 l1 67 38 0 c27 0 42 -6 49 -17z m5013 -125 c29 0 64 -5 78 -11
14 -6 52 -12 85 -13 33 -1 74 -4 90 -7 17 -2 56 -5 88 -5 l57 -2 0 -35 c0 -21
-5 -35 -12 -35 -9 0 -9 -3 0 -12 19 -19 14 -49 -14 -90 -31 -45 -47 -46 -209
-23 -55 8 -103 15 -106 15 -3 0 -18 11 -34 24 -15 13 -45 29 -66 36 -31 11
-39 18 -39 37 0 13 4 33 10 43 7 13 6 21 -5 30 -15 13 -20 51 -8 63 3 4 12 2
19 -4 8 -6 37 -11 66 -11z m-190 -45 c-1 -27 -4 -60 -7 -74 -5 -24 -2 -27 27
-33 18 -4 44 -15 58 -26 l25 -20 -30 0 c-49 0 -199 22 -210 31 -5 6 6 24 28
47 20 21 37 44 37 51 0 8 6 11 15 7 9 -3 15 0 15 10 0 8 4 13 9 10 5 -3 11 8
15 26 9 44 20 27 18 -29z m-2822 -14 c-67 -53 -72 -59 -66 -82 3 -12 6 -71 6
-130 0 -104 1 -108 20 -102 19 6 18 1 -11 -52 -48 -90 -44 -88 -140 -73 -46 7
-94 13 -108 14 l-26 1 3 130 c2 72 4 164 4 205 0 79 11 108 34 90 7 -6 61 -13
121 -15 96 -4 111 -3 133 15 14 11 32 20 40 19 10 0 7 -6 -10 -20z m1010 -124
c0 -19 -55 -105 -71 -110 -10 -4 -22 -18 -25 -33 -13 -58 -38 -99 -73 -123
-20 -13 -45 -32 -55 -42 -11 -9 -40 -27 -65 -39 -25 -12 -61 -37 -80 -55 -19
-18 -39 -33 -46 -33 -13 0 -107 -48 -115 -59 -3 -3 -22 -15 -42 -26 -69 -38
-233 -140 -236 -147 -2 -5 -12 -8 -23 -8 -11 0 -31 -7 -45 -16 -13 -9 -27 -14
-30 -11 -7 6 32 85 55 111 9 10 30 46 47 80 21 43 40 66 63 78 19 9 59 33 91
52 32 20 61 36 65 36 4 0 65 37 134 83 69 46 182 117 250 158 68 41 136 82
150 91 26 16 51 23 51 13z m852 -139 c-2 -9 4 -16 12 -16 20 0 56 -53 56 -82
0 -17 8 -27 30 -35 16 -6 33 -20 36 -30 4 -10 18 -28 33 -40 21 -19 23 -23 8
-23 -32 0 -225 67 -245 85 -4 3 13 60 29 100 4 11 11 30 14 43 7 26 32 24 27
-2z m468 -15 c13 -1 13 0 0 9 -13 9 -13 10 1 10 8 0 19 -4 25 -9 12 -12 176
-41 232 -41 23 0 42 -5 42 -11 0 -6 9 -8 21 -4 16 5 20 3 17 -6 -6 -18 -85
-15 -301 12 -159 19 -177 23 -177 39 0 13 39 16 85 8 22 -4 47 -7 55 -7z
m-830 -106 c91 -31 98 -37 77 -68 -37 -57 -38 -57 -132 -26 -93 31 -140 53
-167 76 -19 17 -11 52 19 85 14 16 19 15 72 -12 31 -16 90 -40 131 -55z
m-6873 11 c7 -6 14 -20 16 -31 2 -11 8 -28 12 -38 11 -27 -9 -41 -65 -43 -27
-2 -59 -5 -70 -9 -22 -7 -26 5 -9 22 7 7 12 37 11 68 l0 56 47 -7 c25 -3 51
-11 58 -18z m-293 -168 c55 -6 114 -11 133 -12 42 -1 69 -34 46 -55 -13 -12
-14 -11 -8 7 5 17 3 21 -9 16 -9 -3 -16 -10 -16 -15 0 -4 -8 -5 -17 -2 -13 5
-15 2 -10 -11 4 -10 1 -19 -8 -22 -8 -4 -15 -13 -15 -21 0 -10 -6 -12 -19 -8
-11 3 -23 0 -27 -7 -4 -6 -2 -14 4 -16 14 -4 6 -22 -9 -22 -6 0 -7 5 -3 11 4
7 -2 9 -17 7 -16 -2 -25 -11 -27 -26 -2 -13 -22 -36 -47 -55 -40 -29 -49 -45
-48 -84 1 -7 -7 -13 -16 -13 -19 0 -121 -91 -121 -108 0 -7 -11 -12 -24 -12
-15 0 -36 -15 -62 -45 -21 -25 -45 -45 -53 -45 -11 0 -12 -3 -3 -12 9 -9 5
-17 -14 -35 -14 -13 -24 -28 -22 -34 2 -6 -9 -25 -24 -42 -28 -29 -29 -29 -50
-11 -43 37 -49 44 -47 56 4 29 -2 38 -26 38 -14 0 -25 5 -25 10 0 6 -5 10 -11
10 -6 0 -9 -7 -5 -15 3 -9 0 -15 -8 -15 -15 0 -48 34 -41 42 16 16 13 56 -5
73 -16 14 -17 20 -8 27 10 6 10 10 -2 18 -21 14 -35 6 -33 -18 2 -19 -25 -36
-54 -33 -7 1 -22 -3 -32 -9 -13 -7 -22 -7 -26 0 -3 6 4 10 17 10 22 1 22 1 5
15 -11 7 -25 11 -32 9 -16 -6 -30 27 -15 36 16 10 -10 28 -48 36 -28 6 -32 4
-32 -15 0 -23 -28 -29 -47 -10 -16 16 -53 1 -53 -22 0 -10 -4 -19 -10 -19 -5
0 -10 9 -10 20 0 12 -5 17 -14 14 -22 -9 -62 38 -69 80 -9 54 7 80 44 72 22
-4 29 -2 29 10 0 8 -6 14 -12 12 -7 -1 -23 3 -35 10 -20 11 -23 10 -23 -4 0
-15 -2 -15 -25 0 -13 9 -34 16 -45 16 -32 0 -18 25 14 26 38 1 45 14 8 14 -39
0 -42 17 -4 26 46 10 73 27 67 42 -4 11 1 13 20 9 19 -3 25 -1 21 9 -3 8 0 15
7 16 22 2 32 5 50 13 9 4 24 5 32 1 8 -3 15 -1 15 4 0 6 4 10 10 10 6 0 6 -9
-1 -26 -5 -15 -7 -35 -4 -45 4 -12 -1 -22 -16 -30 l-22 -11 24 -19 c31 -24 39
-24 39 1 0 11 4 20 8 20 16 0 21 -13 12 -31 -14 -25 4 -33 24 -10 13 14 28 17
88 14 39 -2 73 -5 76 -7 2 -3 5 -16 6 -30 1 -21 6 -26 29 -27 15 -1 32 -3 37
-4 6 -1 16 -3 23 -4 7 -1 5 -6 -6 -12 -9 -5 -22 -7 -27 -4 -6 3 -15 3 -21 0
-19 -12 59 -44 148 -62 107 -21 212 -21 224 -2 7 12 12 12 30 1 17 -11 20 -11
17 0 -3 7 4 17 15 23 18 9 19 21 18 158 -1 81 1 152 4 158 8 12 80 11 219 -3z
m9110 -62 c42 -11 67 -6 75 16 12 33 22 5 11 -33 -6 -19 -10 -62 -10 -97 l0
-63 -67 6 c-38 2 -79 6 -93 8 -14 2 -35 5 -47 5 -13 1 -23 6 -23 12 0 5 20 7
48 3 l47 -5 1 85 c0 46 4 93 9 103 7 17 9 16 18 -8 6 -14 20 -29 31 -32z
m-12025 -80 c7 -8 26 -18 42 -21 16 -4 32 -12 36 -18 8 -13 57 -37 73 -37 6 0
10 7 10 15 0 8 5 15 11 15 6 0 8 -9 4 -22 -6 -16 -4 -20 9 -15 17 7 34 -12 19
-22 -5 -3 -12 -14 -16 -23 -6 -17 -9 -16 -42 3 -19 12 -35 26 -35 32 0 6 -12
0 -26 -14 -23 -22 -27 -23 -38 -7 -6 9 -21 18 -31 20 -16 2 -19 -2 -18 -19 2
-17 -4 -24 -25 -29 -15 -4 -35 -14 -44 -22 -10 -8 -18 -12 -18 -7 0 4 -7 2
-15 -5 -13 -10 -19 -10 -33 4 -10 9 -24 16 -30 16 -7 0 -12 7 -12 15 0 8 -9
15 -20 15 -11 0 -20 5 -20 10 0 6 7 10 15 10 8 0 15 5 15 10 0 6 11 10 25 10
27 0 32 9 14 27 -8 8 0 19 31 42 47 34 99 41 119 17z m-3974 -26 c4 -6 10 -8
15 -5 16 10 38 -57 26 -78 -8 -13 -7 -24 5 -45 28 -49 4 -67 -49 -37 -15 8
-40 20 -57 26 l-30 10 25 20 25 19 -37 34 c-21 18 -38 36 -38 40 0 3 18 6 40
6 22 0 40 5 40 10 0 13 27 13 35 0z m16802 -17 c36 -6 68 -33 39 -33 -12 0
-16 -9 -16 -35 0 -36 -22 -50 -34 -20 -8 22 -23 18 -29 -7 -7 -26 7 -57 17
-39 12 19 28 12 24 -11 -2 -17 -10 -23 -28 -23 -19 0 -27 -7 -36 -34 -10 -31
-11 -32 -17 -11 -3 13 -3 28 1 34 4 6 5 48 3 93 -3 89 2 108 28 98 9 -4 31 -9
48 -12z m-13163 -38 c20 -8 36 -19 36 -24 0 -6 10 -13 23 -17 12 -3 29 -13 37
-20 8 -7 24 -21 35 -31 11 -10 28 -17 38 -15 10 2 17 -3 17 -12 0 -18 -25 -22
-35 -6 -4 6 -15 8 -26 5 -14 -5 -20 0 -25 19 -4 19 -13 26 -30 26 -15 0 -24
-6 -24 -15 0 -8 9 -15 20 -15 12 0 20 -7 20 -16 0 -14 -7 -16 -45 -11 -25 4
-47 2 -50 -3 -3 -6 -17 -10 -31 -10 -17 0 -27 -8 -34 -26 -6 -14 -13 -24 -18
-22 -35 16 -81 52 -76 59 3 5 25 9 50 9 29 0 44 4 44 13 0 16 -41 41 -49 30
-10 -15 -69 -35 -80 -28 -6 3 -10 26 -9 51 3 43 4 44 30 38 26 -5 92 11 113
28 13 11 28 10 69 -7z m-760 -15 c15 -15 -2 -40 -29 -40 -20 0 -25 -5 -25 -25
0 -14 5 -25 10 -25 16 0 12 -14 -10 -38 -13 -14 -33 -22 -53 -22 -27 -1 -29
-2 -14 -11 9 -5 22 -7 27 -4 12 7 13 -15 2 -32 -5 -8 -19 -9 -46 -3 -21 5 -48
5 -60 0 -21 -9 -21 -9 2 -9 15 -1 22 -7 22 -21 0 -11 -7 -20 -15 -20 -17 0
-20 -16 -5 -25 12 -7 14 -35 3 -35 -5 0 -16 15 -26 32 -18 31 -20 32 -32 14
-15 -20 -49 -15 -59 9 -7 19 47 75 73 75 12 0 21 5 21 11 0 6 -9 9 -20 6 -36
-9 -22 22 36 78 44 43 61 54 79 49 15 -4 24 0 28 10 4 9 2 16 -3 16 -6 0 -10
5 -10 11 0 6 7 9 15 6 8 -4 17 -1 21 4 7 11 53 4 68 -11z m12240 -55 c45 -6
56 -11 56 -26 0 -15 -4 -17 -24 -9 -32 12 -36 6 -36 -52 0 -42 3 -48 20 -48
18 0 39 -25 29 -35 -2 -2 -33 4 -69 14 l-65 17 2 77 c2 92 10 124 23 90 7 -17
20 -23 64 -28z m277 -51 c10 -9 36 -18 58 -21 43 -6 61 -35 19 -30 -21 2 -23
-3 -26 -45 -3 -43 -1 -48 17 -48 13 0 21 -7 21 -16 0 -14 -9 -16 -52 -12 -57
6 -83 28 -73 65 3 12 1 25 -5 28 -14 9 -13 51 2 75 15 24 17 24 39 4z m225
-42 c26 -4 49 -13 52 -20 3 -9 -3 -13 -19 -10 -22 3 -24 -1 -27 -48 -3 -45 0
-52 19 -57 40 -11 10 -27 -39 -20 -66 8 -71 15 -66 81 2 31 4 71 4 87 1 28 2
29 14 12 9 -11 34 -21 62 -25z m304 -14 c7 -18 9 -19 9 -5 1 21 10 21 35 2 11
-8 37 -15 58 -15 35 0 38 -2 39 -27 1 -44 -2 -148 -5 -151 -2 -1 -34 5 -73 14
-69 15 -69 16 -65 45 3 21 -1 35 -14 45 -17 14 -17 15 -1 10 21 -7 22 10 1 31
-8 9 -13 22 -10 30 3 8 6 21 6 29 0 21 9 17 20 -8z m-7277 -33 c20 -18 37 -43
37 -54 0 -12 11 -26 28 -35 30 -15 72 -67 72 -89 0 -7 11 -24 25 -37 14 -13
25 -29 25 -37 0 -7 4 -13 10 -13 14 0 57 -51 79 -91 11 -20 26 -34 37 -34 15
0 20 -9 22 -45 1 -25 5 -56 8 -70 l6 -25 9 23 c4 12 13 22 19 22 12 0 13 -17
1 -24 -5 -3 -7 -14 -4 -25 4 -16 -34 -71 -50 -71 -4 0 -23 16 -43 36 -29 28
-42 34 -62 29 -23 -6 -52 9 -52 26 0 5 7 9 15 9 13 0 15 13 13 73 l-3 72 -52
3 -53 3 3 -62 c2 -63 6 -69 52 -84 18 -6 19 -7 3 -16 -24 -14 -78 15 -78 41 0
11 -2 20 -5 20 -4 0 -76 -32 -84 -37 -3 -2 12 -18 32 -37 40 -36 48 -60 20
-54 -21 4 -112 -106 -113 -134 0 -23 -9 -23 -25 -1 -11 15 -13 15 -24 -4 -9
-19 -14 -20 -36 -10 -14 7 -23 17 -21 23 3 6 -1 17 -7 23 -8 8 -8 11 0 11 7 0
15 -5 19 -11 4 -7 9 -8 17 0 18 18 -12 41 -54 41 -46 0 -48 -8 -13 -49 20 -24
22 -31 10 -31 -29 0 -19 -46 13 -60 22 -9 27 -16 23 -32 -4 -17 -10 -19 -41
-13 -50 10 -51 11 -51 64 0 68 -11 141 -21 141 -5 0 -9 -8 -9 -19 0 -23 -19
-39 -42 -36 -27 5 -22 -7 17 -39 19 -16 32 -33 29 -37 -9 -15 -21 -10 -27 12
-5 17 -9 19 -25 10 -11 -6 -22 -17 -26 -26 -4 -12 0 -14 22 -9 25 5 25 4 7 -7
-11 -7 -26 -20 -32 -28 -12 -14 -14 -14 -26 1 -8 10 -17 15 -21 11 -3 -4 -13
3 -22 15 -12 18 -19 20 -35 12 -23 -13 -25 -4 -2 18 16 16 13 17 -38 22 -35 3
-48 8 -37 12 15 6 17 16 12 55 -8 60 -27 78 -60 56 -28 -18 -56 -11 -48 12 4
9 -1 17 -10 21 -11 4 -14 13 -11 25 5 13 1 19 -10 19 -9 0 -15 6 -12 13 5 15
135 13 215 -4 78 -16 82 -9 82 120 l0 107 30 17 c32 19 100 97 100 116 0 6 6
11 13 11 6 0 54 41 105 90 50 50 98 90 105 90 6 0 29 -16 50 -35z m-6335 -55
c47 -21 55 -35 17 -28 -14 3 -28 2 -30 -2 -2 -4 -15 -5 -29 -3 -27 6 -57 -31
-33 -40 8 -4 9 -8 2 -14 -6 -4 -18 -20 -28 -35 -10 -16 -23 -25 -31 -22 -8 3
-17 1 -20 -4 -3 -5 4 -12 16 -15 18 -5 19 -8 9 -21 -10 -11 -18 -13 -31 -6
-10 6 -30 10 -44 10 -26 0 -35 14 -16 25 6 4 8 11 5 16 -4 5 0 12 8 15 9 3 18
17 22 31 9 38 92 112 125 112 8 0 34 -8 58 -19z m10504 -133 c-1 -70 -6 -136
-12 -147 -13 -25 -13 -39 1 -20 8 11 9 -25 4 -125 -4 -77 -6 -170 -5 -207 1
-77 -13 -89 -48 -41 l-19 27 -28 -22 c-15 -12 -40 -22 -56 -22 -35 0 -96 35
-104 61 -6 16 -22 24 -47 20 -4 0 -53 6 -110 13 -57 8 -138 17 -181 21 l-79 7
7 26 c4 15 8 38 9 52 0 14 6 24 14 22 63 -12 155 -20 185 -15 26 4 40 1 52
-11 23 -23 82 -21 90 3 7 22 141 249 160 271 7 8 31 45 52 81 44 78 94 140
108 136 5 -2 8 -57 7 -130z m-7142 93 c0 -6 -12 -15 -26 -20 -23 -9 -24 -11
-10 -26 9 -8 16 -20 16 -26 0 -6 9 -3 20 7 11 10 20 26 20 37 0 25 17 23 44
-7 18 -19 33 -25 68 -25 24 0 48 4 54 9 5 4 24 11 41 14 26 5 35 2 43 -13 14
-25 13 -30 -6 -30 -8 0 -12 -5 -9 -10 4 -7 -2 -9 -19 -4 -25 6 -31 0 -27 -32
1 -6 -6 -17 -14 -24 -10 -9 -15 -9 -15 -1 0 6 -5 11 -11 11 -6 0 -8 -7 -5 -15
6 -17 -6 -24 -49 -29 -28 -3 -48 -23 -38 -39 3 -4 -4 -11 -15 -14 -11 -2 -23
-12 -26 -21 -3 -10 -8 -22 -11 -28 -3 -6 4 -14 17 -17 22 -6 22 -7 3 -21 -17
-12 -18 -17 -7 -40 6 -14 19 -26 28 -26 10 0 14 -6 11 -14 -3 -7 -1 -18 5 -24
11 -11 3 -32 -12 -32 -5 0 -16 14 -25 30 -9 17 -22 30 -30 30 -19 0 -19 -16 0
-24 8 -3 15 -14 15 -25 0 -14 5 -19 15 -15 8 4 15 2 15 -4 0 -5 -7 -12 -15
-16 -8 -3 -15 -12 -15 -21 0 -17 -9 -19 -27 -7 -8 5 -11 22 -8 44 5 39 5 39
-64 53 -29 6 -33 5 -28 -9 4 -11 -1 -18 -18 -22 -16 -4 -25 -13 -25 -25 0 -24
-27 -36 -43 -20 -17 17 -30 13 -24 -9 3 -13 -1 -24 -13 -30 -27 -15 -32 -12
-20 9 7 15 6 23 -6 35 -8 9 -20 16 -25 16 -5 0 -9 6 -9 14 0 21 -19 24 -59 10
-48 -16 -71 0 -38 26 21 17 21 19 4 26 -25 9 -56 -21 -39 -38 7 -7 12 -19 12
-28 0 -13 10 -15 55 -12 49 3 55 1 55 -17 0 -11 -11 -33 -25 -49 -14 -17 -25
-33 -25 -36 0 -4 11 -11 25 -16 14 -5 25 -16 25 -25 0 -12 8 -14 40 -9 48 8
52 -4 9 -28 -36 -21 -39 -21 -74 -8 -21 8 -25 13 -16 24 6 7 8 21 5 31 -5 13
-14 15 -42 10 l-35 -7 16 26 c11 16 13 27 6 31 -5 4 -7 14 -4 24 4 14 -2 18
-40 20 -36 1 -44 -1 -39 -13 4 -10 -9 -21 -41 -35 -54 -24 -65 -21 -65 18 0
47 27 100 55 107 43 11 45 32 8 69 -34 34 -44 79 -20 88 6 3 3 6 -9 6 -11 1
-25 6 -30 11 -8 8 -19 7 -39 0 -35 -13 -41 -8 -16 14 17 16 24 16 58 5 21 -7
73 -12 116 -12 66 1 77 -1 77 -16 0 -10 16 -23 40 -34 22 -9 40 -20 40 -25 0
-4 15 -16 33 -25 31 -17 38 -17 89 -4 73 19 108 13 108 -19 0 -13 2 -24 4 -24
2 0 12 -3 21 -7 14 -5 16 -2 10 15 -4 13 -2 22 4 22 6 0 11 -5 11 -11 0 -8 5
-8 15 1 15 13 11 35 -6 25 -5 -4 -9 14 -9 39 0 34 -4 46 -15 46 -9 0 -15 9
-15 21 0 12 -5 19 -12 16 -8 -2 -12 -16 -10 -35 3 -28 1 -32 -21 -32 -14 0
-30 -7 -38 -16 -11 -14 -15 -13 -30 8 -13 16 -15 26 -7 35 9 11 13 10 22 -2 9
-13 14 -13 28 -3 9 7 19 23 22 34 6 19 1 22 -33 28 -31 5 -40 11 -45 32 -5 18
-3 30 5 35 19 11 32 0 26 -22 -3 -11 0 -19 7 -19 19 0 36 22 36 47 0 20 -4 22
-25 17 -28 -7 -32 7 -13 47 20 43 128 101 128 69z m5125 -10 c22 -5 92 -14
155 -20 114 -10 132 -12 240 -30 30 -5 78 -11 105 -14 28 -3 78 -8 113 -12 34
-3 65 -10 68 -16 7 -11 -85 -5 -160 11 -26 6 -51 9 -55 7 -10 -6 -438 47 -513
63 -20 5 -39 6 -43 3 -3 -3 -5 0 -5 6 0 14 40 15 95 2z m-3764 -36 c41 -21
129 -103 129 -120 0 -7 -6 -14 -12 -17 -15 -5 18 -47 37 -47 21 0 43 -34 41
-64 -1 -30 -26 -51 -26 -22 0 29 -21 17 -36 -20 -12 -28 -13 -39 -3 -44 6 -4
8 -13 5 -19 -11 -17 -26 -13 -19 6 5 12 2 15 -10 10 -22 -8 -22 12 1 29 16 12
15 14 -7 38 -24 26 -24 26 -3 26 15 0 20 5 16 15 -7 17 -34 20 -34 4 0 -6 -20
1 -45 15 -36 22 -49 25 -65 16 -23 -13 -27 -40 -5 -40 17 0 39 -46 29 -62 -4
-5 -19 -7 -35 -4 -32 6 -52 -16 -39 -43 28 -59 28 -77 -2 -112 -24 -27 -31
-30 -38 -19 -6 8 -10 20 -10 25 -1 23 -84 96 -94 83 -11 -13 -23 -68 -15 -68
5 0 9 5 9 10 0 7 6 7 20 0 11 -6 20 -17 20 -25 0 -8 6 -15 14 -15 10 0 13 -14
13 -52 -1 -47 -3 -52 -30 -62 -19 -7 -30 -20 -34 -39 -3 -16 -22 -40 -47 -59
-22 -18 -43 -35 -46 -39 -3 -3 -34 -14 -70 -23 -201 -51 -213 -58 -220 -140
-3 -37 -2 -70 3 -75 5 -5 0 -14 -13 -21 -12 -6 -25 -8 -28 -4 -4 4 -1 9 6 11
6 3 12 11 12 19 0 8 -6 13 -12 11 -8 -1 -14 11 -16 28 -2 17 -16 41 -33 57
-16 15 -29 34 -29 42 0 10 -9 16 -25 16 -26 0 -35 15 -13 22 14 5 -25 48 -43
48 -6 0 -8 7 -5 16 5 12 2 15 -10 10 -14 -5 -15 -4 -4 9 10 12 10 15 -3 15 -9
0 -19 -4 -22 -10 -3 -5 -18 -10 -33 -9 l-27 1 27 8 c15 4 37 15 50 24 38 27
55 21 54 -20 -1 -23 4 -39 14 -44 45 -21 54 -27 58 -38 2 -7 -5 -12 -15 -12
-14 0 -13 -3 7 -13 32 -17 34 -15 32 31 -3 47 11 70 31 54 14 -12 27 -7 27 12
0 6 -5 4 -10 -4 -7 -10 -10 -11 -10 -2 0 7 -11 18 -25 24 -14 6 -25 20 -25 30
0 10 -11 31 -25 46 -29 32 -30 34 -10 76 18 36 8 82 -20 92 -8 4 -15 17 -15
30 0 15 -6 24 -16 24 -8 0 -23 7 -31 16 -14 13 -14 17 -2 25 11 7 10 11 -6 23
-19 15 -18 15 16 16 l35 0 2 62 c1 33 -3 67 -9 74 -7 9 -6 15 6 21 13 8 14 11
0 28 -12 16 -16 17 -24 6 -5 -7 -7 -26 -4 -42 3 -21 -1 -29 -17 -34 -20 -6
-29 -45 -10 -45 6 0 10 -5 10 -12 0 -6 -10 -2 -23 10 -13 12 -33 22 -44 22
-12 0 -24 6 -26 13 -4 9 -8 9 -15 -2 -12 -17 -46 -6 -39 13 5 11 0 11 -24 -1
-16 -8 -29 -18 -29 -23 0 -14 -31 -41 -41 -35 -17 11 -9 44 14 60 12 10 15 14
7 11 -8 -3 -23 -9 -32 -12 -10 -4 -18 -10 -18 -15 0 -5 -9 -9 -20 -9 -14 0
-20 7 -20 23 1 23 31 67 48 67 5 0 15 7 22 15 7 8 19 15 27 15 8 0 34 16 56
36 37 32 46 35 81 29 27 -4 42 -2 48 7 6 10 11 9 19 -4 5 -10 17 -18 25 -18
14 0 61 -68 57 -82 -2 -4 5 -17 14 -28 18 -21 53 -27 53 -10 0 6 5 10 11 10 5
0 7 -4 4 -10 -11 -18 17 -11 31 8 8 10 13 12 14 5 0 -17 21 -16 56 1 15 8 31
13 35 10 4 -2 40 16 80 41 40 25 77 45 83 45 5 0 29 9 52 20 92 45 243 57 305
24z m-5060 -26 c3 -5 19 -6 35 -2 27 7 28 6 15 -10 -12 -14 -12 -19 -2 -25 10
-6 9 -10 -4 -15 -10 -3 -23 -2 -30 4 -8 7 -22 2 -45 -15 -34 -25 -87 -42 -98
-30 -4 4 2 13 12 21 22 15 10 19 -14 4 -9 -6 -17 -5 -22 3 -14 22 -8 36 28 61
28 19 44 23 77 18 23 -3 45 -9 48 -14z m11342 -35 c3 -10 4 -33 3 -50 -1 -18
-3 -64 -4 -103 -2 -81 -12 -91 -82 -81 -40 5 -45 9 -48 34 -3 26 -2 28 18 17
11 -6 38 -10 58 -8 36 3 37 4 38 43 2 55 -8 64 -67 60 l-49 -3 0 54 0 54 64 0
c53 0 66 -3 69 -17z m437 -100 c0 -67 -4 -103 -11 -103 -6 0 -9 -6 -6 -12 10
-28 -12 -48 -46 -42 -81 13 -74 0 -75 136 l-2 123 70 0 70 0 0 -102z m-5593
49 c-10 -10 -17 -22 -17 -26 0 -8 30 -3 64 10 14 5 15 -5 9 -90 -4 -72 -3 -99
7 -111 13 -15 7 -16 -61 -10 -41 4 -93 13 -117 21 -23 8 -61 14 -83 14 -41 0
-102 20 -113 38 -3 6 31 29 76 53 46 23 101 53 122 67 49 31 119 62 125 56 2
-2 -3 -12 -12 -22z m6032 -97 c-1 -124 -1 -125 -26 -131 -31 -8 -104 1 -112
14 -3 6 -4 34 -1 64 4 44 5 47 8 18 5 -48 19 -62 61 -58 35 3 36 4 39 50 3 44
1 48 -23 54 -14 3 -39 4 -55 0 l-30 -5 0 59 0 60 70 0 71 0 -2 -125z m-4644
90 c22 -4 110 -13 195 -20 85 -8 182 -19 215 -24 33 -5 105 -12 160 -15 115
-7 143 -11 169 -21 11 -5 21 -3 27 6 7 11 9 11 9 -3 0 -12 8 -18 24 -18 14 0
28 -5 32 -11 5 -8 -1 -10 -19 -5 -14 3 -28 2 -31 -3 -3 -5 -22 -9 -41 -8 -42
1 -56 -10 -32 -27 26 -20 21 -36 -12 -36 -28 0 -29 1 -21 31 5 18 7 36 4 40
-3 5 0 9 6 9 6 0 8 5 5 10 -10 17 -21 11 -34 -16 -11 -26 -13 -26 -84 -21 -40
3 -133 11 -207 17 -210 16 -431 56 -452 81 -23 27 -13 49 20 44 15 -2 45 -7
67 -10z m5485 -44 c0 -4 26 -11 58 -15 31 -4 63 -10 71 -15 24 -16 -5 -21 -64
-11 -32 5 -62 7 -66 4 -16 -10 -10 -120 7 -135 8 -7 24 -30 35 -51 13 -25 26
-38 40 -38 38 0 57 -17 51 -47 -7 -39 -19 -44 -83 -37 -37 4 -59 2 -64 -5 -7
-12 -67 -6 -95 10 -12 7 -10 8 8 9 12 0 22 5 22 10 0 6 8 10 19 10 17 0 19 12
23 149 3 82 9 154 12 160 8 13 26 15 26 2z m-11150 -26 c7 -8 25 -15 40 -15
41 0 60 -10 60 -30 0 -10 7 -23 15 -30 15 -13 21 -42 8 -38 -5 1 -20 -6 -35
-16 -39 -26 -84 -10 -80 28 2 20 -2 26 -18 26 -11 0 -20 5 -20 10 0 6 -9 10
-19 10 -31 0 -32 42 -1 57 34 15 36 15 50 -2z m11466 -27 c-1 -21 6 -24 62
-32 64 -10 85 -26 32 -26 -28 0 -30 -2 -30 -39 0 -36 3 -40 27 -43 42 -5 41
-28 -2 -28 -36 0 -36 -1 -33 -37 3 -32 7 -38 36 -45 19 -5 32 -15 32 -24 0
-13 -10 -15 -67 -9 -114 11 -105 -1 -101 144 2 89 7 133 17 144 19 23 28 21
27 -5z m261 -62 c27 -4 57 -10 68 -14 17 -5 16 -7 -10 -11 -26 -5 -30 -11 -33
-44 -3 -35 -1 -38 27 -43 39 -8 40 -24 2 -24 -25 0 -29 -4 -34 -32 -5 -38 7
-58 35 -58 11 0 18 -5 15 -12 -4 -14 -83 -17 -131 -4 l-28 7 4 117 c5 124 14
166 29 139 5 -8 30 -18 56 -21z m-12367 4 c0 -5 11 -10 25 -10 40 0 26 -29
-30 -64 -16 -10 -42 -30 -57 -43 -21 -20 -32 -24 -57 -18 -24 5 -31 3 -31 -9
0 -9 5 -16 10 -16 20 0 9 -20 -20 -35 -41 -21 -43 -20 -35 28 3 23 9 57 12 75
4 24 10 32 27 32 13 0 27 11 38 29 13 24 24 30 60 34 24 2 46 4 51 5 4 1 7 -2
7 -8z m12718 -35 c20 -4 55 -10 77 -15 l40 -8 -36 -1 c-33 -1 -37 -4 -43 -32
-7 -36 5 -56 36 -61 36 -5 32 -26 -4 -25 -30 2 -33 -1 -36 -31 -4 -38 12 -62
39 -62 11 0 19 -4 19 -9 0 -10 -58 -23 -70 -16 -5 3 -29 7 -55 10 -26 2 -49 5
-51 7 -1 2 1 21 6 43 5 22 10 75 10 117 0 77 21 159 28 111 3 -17 12 -24 40
-28z m-10073 5 c3 -5 20 -10 37 -10 32 0 77 -29 136 -87 36 -36 39 -43 17 -43
-18 0 -20 -21 -4 -37 8 -8 4 -16 -17 -28 l-29 -16 28 6 c25 5 28 3 25 -17 -3
-21 -8 -23 -57 -21 -40 2 -57 -1 -66 -14 -9 -13 -14 -13 -20 -3 -6 10 -12 7
-25 -10 -22 -29 -50 -21 -50 14 0 23 -23 41 -47 37 -22 -3 -14 18 12 35 14 9
24 24 23 33 -2 8 2 16 9 16 21 0 25 13 11 34 -13 19 -16 19 -36 5 -19 -13 -22
-13 -29 3 -4 10 -8 29 -8 43 0 20 6 26 27 28 16 2 28 11 31 23 6 20 22 25 32
9z m3225 -33 c0 -7 -5 -18 -12 -25 -18 -18 3 -14 24 5 16 14 21 15 44 2 15 -7
44 -13 65 -13 28 1 39 -3 39 -14 0 -11 7 -13 31 -8 49 10 79 -2 79 -31 0 -24
2 -25 60 -21 42 2 60 -1 60 -9 0 -7 -7 -10 -15 -7 -8 4 -15 2 -15 -4 0 -12 28
-24 40 -17 4 3 12 -3 16 -13 6 -12 10 0 14 41 6 65 22 76 30 21 l5 -36 19 21
c15 17 26 20 57 15 l39 -7 1 54 c2 51 2 52 8 15 5 -35 10 -40 46 -51 32 -9 36
-13 20 -17 -16 -5 -15 -6 7 -7 25 -1 52 -21 29 -21 -6 0 -11 -4 -11 -10 0 -5
7 -10 15 -10 8 0 15 6 15 13 0 7 3 8 8 2 4 -5 16 -10 26 -10 25 0 32 -21 9
-27 -10 -2 -42 -2 -71 0 -50 4 -54 6 -49 28 2 13 1 21 -4 18 -4 -2 -12 4 -18
13 -9 16 -11 15 -12 -7 -2 -42 -3 -44 -34 -77 -31 -33 -125 -87 -125 -72 0 5
5 9 10 9 6 0 10 5 10 11 0 6 -9 8 -20 4 -16 -5 -20 -2 -20 14 0 12 -6 21 -16
21 -8 0 -12 -4 -9 -10 3 -5 -2 -21 -11 -36 -14 -20 -24 -25 -45 -22 -16 3 -31
0 -33 -6 -2 -6 -5 -3 -5 6 -1 9 4 18 11 20 7 3 9 12 5 22 -6 14 -15 16 -52 12
-42 -4 -58 5 -34 19 6 4 8 14 4 22 -3 9 2 26 10 39 14 22 12 28 -7 25 -5 0 -8
6 -8 14 0 8 -4 15 -10 15 -5 0 -10 -5 -10 -11 0 -8 -5 -7 -16 2 -13 11 -19 8
-37 -15 -23 -28 -57 -28 -57 -1 0 7 -13 19 -30 27 -16 7 -30 18 -30 25 0 8
-14 10 -45 7 -46 -5 -57 4 -30 26 8 7 15 19 15 26 0 8 5 14 10 14 6 0 10 -6
10 -13z m2268 -67 c2 -35 -2 -50 -18 -68 -15 -15 -20 -31 -16 -45 5 -22 -9
-74 -30 -111 -10 -17 -16 -17 -83 -5 -80 15 -90 27 -65 77 10 21 23 32 37 32
12 0 33 9 47 20 14 11 33 20 42 20 9 0 20 5 23 10 3 6 -1 10 -10 10 -12 0 -15
6 -10 20 5 14 2 20 -9 20 -9 0 -16 5 -16 10 0 14 57 13 66 -1 4 -8 9 -7 15 2
16 26 9 39 -22 39 -19 0 -28 4 -24 11 4 5 21 9 38 7 30 -3 32 -6 35 -48z
m1787 -80 l53 0 -3 -122 -3 -123 -64 0 -63 0 -3 63 c-2 45 0 62 8 57 6 -4 10
-19 9 -33 -4 -38 8 -52 45 -52 42 0 56 15 56 62 0 32 -4 39 -26 44 -14 4 -41
4 -60 1 l-34 -6 0 61 c0 51 2 59 16 54 9 -3 40 -6 69 -6z m377 -145 c-2 -66
-7 -124 -11 -128 -5 -5 -33 -5 -62 0 -44 7 -54 12 -54 28 0 17 6 19 53 16 l52
-2 0 45 c0 52 -16 66 -74 66 -41 0 -50 24 -14 36 l21 6 -24 19 c-13 9 -22 20
-19 22 20 17 47 22 88 17 l47 -5 -3 -120z m-4292 97 c0 -10 12 -25 28 -33 15
-8 34 -21 42 -29 15 -15 33 -22 58 -23 6 0 12 -7 12 -15 0 -8 7 -20 16 -27 21
-15 10 -55 -15 -55 -10 0 -30 -9 -44 -20 l-25 -20 -36 22 c-19 13 -34 30 -33
38 3 20 -34 15 -80 -11 -31 -17 -38 -18 -57 -6 -30 19 -65 27 -72 15 -3 -5
-17 -13 -30 -18 -31 -12 -30 -25 1 -46 20 -13 23 -19 14 -31 -10 -11 -15 -10
-32 11 -11 14 -22 41 -24 61 -3 30 0 37 22 45 14 5 25 16 25 24 0 8 7 19 16
24 8 5 21 19 27 33 15 29 57 35 99 13 35 -18 44 -14 28 15 -8 17 -8 21 3 21 8
0 20 7 27 15 17 20 30 19 30 -3z m-6350 -2 c13 -8 13 -13 2 -31 -18 -28 -8
-35 22 -15 41 26 45 -2 5 -35 -32 -26 -61 -31 -88 -15 -5 4 -12 2 -16 -4 -11
-18 -47 -11 -52 10 -6 24 -20 25 -73 4 -23 -9 -44 -14 -47 -10 -4 3 -1 6 5 6
6 0 9 7 5 16 -3 9 5 26 21 43 25 26 31 28 90 24 40 -3 66 0 71 6 8 13 35 14
55 1z m11380 -93 c0 -118 -8 -165 -29 -172 -9 -2 -36 -1 -61 3 -37 6 -46 12
-48 31 -3 20 -1 22 20 15 13 -4 36 -8 52 -9 25 0 31 5 36 31 11 52 -1 68 -56
74 -38 4 -50 9 -52 24 -2 10 2 23 10 28 10 7 10 11 1 15 -7 2 -13 13 -13 24 0
16 8 19 43 20 23 1 47 1 54 0 6 -1 14 3 18 9 16 26 25 -8 25 -93z m2680 69 c0
-8 16 -16 40 -20 36 -6 40 -9 40 -36 0 -35 3 -35 -131 -15 -71 11 -106 12
-119 5 -28 -15 -25 -30 5 -30 14 0 25 -4 25 -9 0 -6 12 -16 27 -23 28 -14 46
-42 20 -32 -21 8 -32 -28 -13 -42 9 -6 16 -16 16 -23 0 -18 -29 -12 -42 9 -15
23 -33 27 -24 5 4 -10 -1 -15 -14 -15 -11 0 -20 5 -20 10 0 14 -47 13 -56 -1
-3 -6 1 -18 9 -27 13 -12 19 -13 30 -4 11 10 17 9 27 -3 10 -13 9 -15 -11 -17
-31 -1 -83 3 -88 8 -2 2 2 10 8 18 10 12 7 21 -19 46 -35 34 -34 34 -61 20
-16 -9 -19 -7 -19 14 0 13 -6 26 -12 29 -23 8 9 30 48 33 20 2 42 8 50 15 8 6
21 9 29 5 9 -3 24 3 33 12 10 10 26 21 34 25 11 4 15 13 11 28 -6 21 -4 22 53
15 34 -3 65 -2 74 4 22 14 50 12 50 -4z m-11774 -38 c5 -7 8 -24 8 -37 1 -17
10 -30 26 -38 14 -7 25 -21 26 -31 3 -52 27 -54 51 -4 20 42 50 53 70 26 20
-27 16 -60 -9 -81 -13 -10 -28 -28 -35 -40 -11 -19 -10 -23 7 -28 11 -4 18
-10 15 -15 -3 -5 1 -12 8 -17 23 -13 34 -45 32 -96 -2 -58 -42 -107 -85 -107
-27 0 -27 2 -34 78 -3 43 -3 93 0 110 13 66 -2 68 -60 9 -30 -30 -66 -57 -80
-61 -58 -14 -84 34 -51 92 35 63 85 196 80 213 -11 32 15 53 31 27z m9869 -24
c50 -8 110 -15 135 -14 64 1 202 -18 214 -30 7 -7 5 -10 -6 -10 -9 0 -24 -3
-34 -7 -11 -4 -15 -3 -11 4 5 7 0 9 -13 6 -20 -5 -20 -6 -4 -25 10 -10 27 -17
38 -16 15 2 20 -2 18 -13 -1 -10 6 -19 18 -22 14 -4 20 -13 20 -35 0 -17 -3
-33 -8 -36 -9 -5 -158 10 -222 23 -25 5 -72 14 -105 20 -111 20 -280 52 -298
57 -15 5 -17 14 -15 52 l3 47 45 6 c81 11 134 9 225 -7z m-5345 -163 c0 -4
-18 -15 -40 -24 -45 -17 -51 -38 -24 -88 8 -17 14 -32 12 -34 -2 -2 -22 0 -45
4 -34 7 -45 5 -58 -9 -8 -9 -13 -24 -9 -33 9 -25 -28 -67 -49 -55 -9 5 -17 19
-17 31 0 21 -37 47 -66 47 -7 0 -16 4 -19 10 -8 14 23 58 40 56 18 -3 32 -16
17 -16 -7 0 -12 -7 -12 -16 0 -11 8 -14 28 -12 25 3 27 6 24 46 -3 42 -3 44
25 42 56 -4 73 1 105 29 42 36 88 48 88 22z m6956 -50 c-3 -5 1 -12 9 -15 9
-3 20 -17 25 -32 9 -22 15 -26 39 -21 15 3 33 1 38 -4 8 -8 17 -7 31 0 26 14
89 14 97 0 4 -6 -2 -13 -14 -16 -11 -3 -18 -9 -15 -14 3 -5 14 -4 25 2 11 5
27 9 37 8 34 -3 42 1 42 22 0 11 4 17 10 14 5 -3 21 5 34 19 17 19 33 26 57
25 22 -1 27 -3 14 -6 -11 -3 -46 -33 -77 -67 -54 -56 -58 -59 -64 -38 -6 21
-24 31 -24 13 0 -5 -12 -13 -27 -18 -32 -10 -133 3 -133 18 0 5 -16 9 -35 9
-31 0 -40 7 -37 31 1 4 -8 9 -18 12 -16 4 -20 0 -20 -17 0 -29 -9 -38 -24 -23
-23 23 -25 45 -5 63 19 17 19 19 3 31 -16 12 -15 13 10 13 15 0 25 -4 22 -9z
m-10437 -100 c16 -26 30 -37 39 -33 11 4 14 1 9 -11 -4 -11 -1 -17 7 -17 8 0
17 -11 20 -24 5 -20 13 -25 44 -28 29 -2 37 -7 37 -23 0 -13 6 -19 17 -17 8 1
18 -4 21 -12 4 -11 -3 -17 -26 -20 -50 -9 -397 -14 -402 -7 -2 4 0 13 6 21 5
8 9 11 9 7 0 -5 27 23 61 62 33 38 67 72 76 75 18 7 38 -6 109 -73 30 -28 62
-51 72 -51 11 0 -10 27 -60 76 -45 43 -78 83 -78 95 0 29 13 23 39 -20z
m11021 5 c52 -8 127 -17 165 -21 39 -4 88 -13 111 -21 29 -10 78 -13 168 -10
70 2 130 6 133 9 3 4 14 2 25 -4 10 -6 24 -8 31 -6 7 2 22 0 35 -4 15 -6 31
-5 44 2 29 15 218 -19 211 -38 -6 -15 11 -17 35 -4 17 8 249 -13 261 -24 3 -4
6 -29 7 -57 1 -49 0 -50 -25 -43 -14 3 -69 6 -121 5 -52 -1 -107 3 -122 9 -29
11 -58 6 -58 -11 0 -5 10 -8 23 -7 57 7 217 -25 217 -42 0 -7 10 -9 26 -5 14
4 24 3 22 -1 -14 -31 -27 -61 -32 -76 -5 -16 -14 -18 -64 -13 -31 3 -83 5
-114 5 -46 1 -61 5 -78 23 -16 18 -23 20 -29 9 -7 -11 -25 -11 -97 -2 -85 10
-329 37 -424 47 -172 17 -246 30 -277 50 -18 11 -23 24 -23 54 0 29 4 40 15
40 8 0 15 4 15 9 0 13 -35 20 -53 10 -25 -15 -128 -13 -137 1 -5 8 -15 10 -26
5 -11 -5 -38 -7 -61 -6 -35 2 -42 -1 -48 -20 -6 -17 -2 -26 16 -40 13 -10 20
-21 16 -25 -4 -4 -13 -2 -19 4 -16 16 -28 15 -28 -3 0 -8 5 -15 12 -15 6 0 9
-2 6 -5 -3 -3 -23 -3 -46 1 -41 6 -47 19 -24 46 6 8 9 18 6 21 -4 4 5 11 19
16 15 6 40 29 56 51 16 23 42 51 58 63 15 12 32 27 36 35 5 7 16 11 25 8 9 -3
60 -12 112 -20z m-11559 -63 c33 -37 130 -123 139 -123 19 0 10 22 -22 51
l-33 30 35 -15 c25 -10 37 -23 43 -46 4 -18 6 -35 3 -38 -3 -3 -69 -7 -146 -8
-118 -3 -140 -1 -140 11 0 8 -9 15 -20 15 -33 0 -23 25 35 84 58 59 81 67 106
39z m-4361 -124 c0 -6 8 -8 20 -4 15 5 21 0 26 -20 3 -14 14 -30 23 -35 27
-16 -5 -29 -46 -18 -19 5 -37 7 -40 4 -13 -13 8 -34 39 -40 47 -9 83 -35 68
-50 -6 -6 -15 -12 -20 -12 -6 -1 -15 -2 -21 -3 -6 0 -8 -10 -4 -23 6 -19 5
-21 -6 -10 -7 6 -27 12 -43 12 -29 1 -30 2 -13 15 27 20 18 49 -17 53 -34 4
-58 -14 -33 -24 23 -8 21 -31 -3 -44 -15 -8 -19 -17 -14 -36 4 -17 1 -31 -11
-44 -10 -11 -15 -26 -11 -35 3 -9 -3 -24 -14 -35 -22 -22 -25 -36 -11 -44 15
-10 39 4 44 26 5 17 11 20 36 15 18 -4 31 -2 31 3 0 6 7 10 15 10 8 0 15 -4
15 -8 0 -15 -70 -73 -71 -60 0 10 -2 10 -6 1 -2 -7 -20 -13 -39 -13 -19 0 -34
-4 -34 -10 0 -5 -8 -10 -17 -10 -9 0 -25 -7 -35 -17 -16 -14 -22 -14 -43 -3
-14 7 -25 20 -25 28 0 9 -7 23 -16 33 -15 17 -15 21 4 59 l19 40 -30 0 c-24 0
-28 3 -19 12 7 7 12 23 12 37 l0 24 -23 -21 c-29 -27 -43 -28 -59 -2 -17 27
-28 25 -28 -5 0 -29 -2 -29 -54 -11 -33 11 -71 46 -50 46 3 0 1 6 -5 13 -8 10
-6 23 9 52 11 22 20 45 20 52 0 7 11 13 24 13 29 0 43 17 27 33 -17 17 -13 27
10 27 11 0 29 5 40 11 29 15 56 4 39 -16 -22 -26 -2 -30 39 -7 50 28 65 28 77
-3 l9 -26 52 36 c29 19 57 35 63 35 6 0 22 -12 35 -27 22 -26 24 -26 25 -7 0
20 17 44 32 44 4 0 8 -5 8 -11z m11938 -65 c26 -4 32 -9 32 -31 0 -24 -2 -25
-40 -19 -25 4 -40 2 -40 -4 0 -5 18 -10 40 -10 l41 0 -3 -82 -3 -83 -44 -3
c-65 -5 -88 11 -26 17 l50 6 6 43 c5 40 3 45 -20 54 -14 5 -40 7 -58 5 -22 -4
-33 -1 -37 9 -8 21 5 46 20 40 7 -3 16 -1 19 4 4 6 -3 10 -13 10 -21 0 -35 22
-26 43 5 13 23 13 102 1z m446 -13 c18 -8 23 -15 19 -30 -3 -12 -13 -21 -22
-21 -14 -1 -14 -2 2 -14 13 -10 17 -28 17 -88 0 -81 -9 -98 -51 -98 -15 0 -31
-4 -34 -10 -11 -19 -31 -10 -40 18 -6 15 -8 50 -4 77 l5 50 5 -40 c4 -36 7
-40 43 -47 50 -11 68 4 64 51 -3 36 -3 36 -58 41 l-55 5 -3 58 -3 57 45 0 c25
0 56 -4 70 -9z m425 -27 l32 -7 -2 -113 c-1 -81 -5 -117 -14 -124 -14 -11 -95
-8 -115 5 -5 3 -10 30 -9 58 1 47 2 49 9 19 9 -40 10 -41 46 -47 39 -7 52 3
54 45 3 60 4 60 -55 60 -48 0 -55 2 -55 20 0 11 7 20 15 20 8 0 15 5 15 10 0
6 -7 10 -15 10 -9 0 -15 9 -15 25 0 22 4 25 39 25 21 0 53 -3 70 -6z m-5424
-100 c46 -44 55 -58 44 -66 -11 -7 -11 -11 -1 -15 14 -5 17 -33 3 -33 -5 0
-11 5 -13 12 -3 9 -45 12 -148 13 -114 0 -144 3 -148 14 -4 11 2 13 27 8 22
-5 34 -2 43 10 28 36 111 113 122 113 7 0 39 -25 71 -56z m-5762 -7 c35 -12
41 -18 39 -37 -2 -13 -14 -32 -25 -42 -18 -16 -18 -19 -4 -14 25 8 60 -24 45
-41 -16 -19 -38 -16 -38 6 0 21 -19 31 -56 31 l-25 0 18 -31 c12 -20 24 -29
35 -25 20 5 21 2 12 -31 -4 -13 -12 -23 -19 -23 -15 0 -28 -28 -19 -42 3 -5
12 -7 20 -4 9 3 14 -2 14 -14 0 -11 -4 -20 -9 -20 -5 0 -16 -3 -25 -6 -11 -4
-16 0 -16 14 0 21 -23 46 -33 35 -13 -12 -7 -52 9 -61 14 -8 11 -12 -17 -27
-19 -10 -45 -24 -59 -31 -40 -21 -156 -27 -188 -10 -15 8 -44 22 -64 31 -36
16 -38 16 -67 -4 -16 -12 -34 -21 -41 -21 -6 0 -10 -6 -7 -12 2 -7 0 -21 -5
-31 -7 -14 -12 -16 -23 -7 -12 10 -12 15 -1 33 23 36 4 67 -41 67 -20 0 -55 9
-77 19 -35 17 -46 18 -78 8 -32 -10 -37 -15 -33 -37 5 -28 -5 -50 -26 -54 -26
-5 -67 -25 -73 -34 -3 -6 -32 -9 -63 -7 -32 2 -53 1 -48 -3 11 -8 13 -37 3
-47 -6 -6 -36 50 -52 98 -3 9 -14 20 -23 24 -10 4 -21 11 -24 16 -9 12 -49
-10 -49 -28 0 -7 5 -15 10 -17 6 -2 3 -13 -6 -26 -12 -18 -23 -23 -43 -19 -14
3 -43 -3 -65 -14 -21 -10 -42 -16 -47 -14 -13 8 -59 -14 -59 -28 0 -19 -36
-50 -52 -44 -22 7 -99 -55 -105 -85 -4 -19 -12 -28 -24 -28 -20 0 -39 -28 -39
-58 0 -11 -6 -22 -14 -25 -7 -3 -17 -18 -20 -33 -4 -15 -18 -36 -32 -46 -13
-11 -24 -25 -24 -33 0 -7 -16 -22 -36 -34 -19 -12 -32 -26 -29 -31 3 -6 -6
-15 -22 -20 -15 -6 -36 -15 -46 -20 -13 -8 -23 -7 -37 3 -15 10 -36 11 -95 5
-83 -10 -127 -2 -131 25 -4 32 34 45 154 54 64 5 88 10 102 25 9 10 33 20 51
21 52 4 60 12 42 47 -10 21 -22 30 -39 30 -13 0 -24 -6 -24 -12 0 -9 -3 -9 -9
1 -7 11 -22 12 -65 7 -42 -5 -56 -3 -56 6 0 9 -3 8 -10 -2 -8 -12 -13 -13 -28
-3 -14 8 -64 10 -163 8 -79 -2 -144 -5 -144 -5 0 0 -26 -3 -57 -5 -35 -3 -58
-1 -58 5 0 6 -20 10 -45 10 -38 0 -45 -3 -45 -20 0 -12 -7 -20 -17 -20 -15 0
-18 10 -18 63 0 34 -3 74 -8 89 -8 30 -41 45 -61 29 -10 -9 -18 -5 -31 16 -18
28 -13 49 16 64 78 41 125 58 146 53 16 -4 36 2 63 20 22 14 46 26 54 26 7 0
16 7 20 15 3 8 12 15 20 15 7 0 27 7 42 15 34 17 60 19 69 5 8 -13 41 -13 63
1 14 9 35 9 82 1 56 -10 66 -10 82 5 13 12 39 17 91 18 40 1 79 4 87 8 8 3 49
15 90 27 41 12 84 26 95 30 114 48 152 65 161 77 6 7 17 13 24 13 7 0 10 7 6
16 -3 8 -2 12 4 9 6 -3 38 1 72 10 41 10 99 16 163 15 211 -3 204 -5 221 36
12 28 19 34 32 28 25 -11 153 -11 182 1 14 5 29 15 33 22 5 8 13 11 18 7 5 -3
41 0 79 6 38 6 75 8 82 3 30 -19 129 -35 208 -33 73 1 93 5 145 32 33 17 64
38 70 47 8 15 10 15 13 -1 2 -9 22 -23 45 -31z m-2570 16 c12 -11 -23 -41 -42
-36 -15 4 -19 -3 -25 -36 -7 -45 -8 -46 -38 -30 -15 8 -27 8 -44 -2 -27 -14
-31 -35 -10 -58 20 -24 27 -87 11 -101 -7 -6 -16 -22 -19 -35 -4 -14 -11 -25
-16 -25 -6 0 -10 -9 -10 -20 0 -22 35 -29 42 -8 7 19 28 -1 28 -27 0 -16 -9
-30 -27 -40 -28 -15 -83 -60 -83 -68 0 -3 11 -8 25 -11 33 -8 32 -20 -6 -47
-27 -19 -36 -21 -61 -11 -16 6 -36 8 -44 5 -7 -3 -17 2 -20 11 -5 13 -14 15
-35 11 -22 -5 -41 0 -73 19 -25 14 -52 26 -60 26 -13 0 -15 9 -9 48 7 56 19
82 38 82 20 0 47 30 41 47 -4 8 11 35 33 61 21 26 49 66 61 90 14 25 31 42 41
42 24 0 33 -18 18 -36 -23 -28 -2 -24 24 5 14 16 23 31 20 34 -3 3 8 12 24 20
15 8 39 27 52 41 17 18 28 23 36 16 17 -14 42 -3 48 21 4 14 14 19 39 19 19 0
38 -3 41 -7z m9185 -34 c17 -17 42 -25 88 -28 15 -1 37 -52 26 -63 -5 -5 -16
0 -27 12 -28 30 -46 26 -38 -10 3 -20 1 -30 -6 -30 -7 0 -10 4 -6 10 3 5 -5
16 -19 25 -23 15 -28 15 -79 -9 -66 -32 -70 -32 -82 -3 -10 23 -33 27 -70 12
-15 -6 -13 -2 8 18 15 15 31 27 35 28 4 0 23 2 42 5 19 2 44 5 55 6 11 2 26
13 33 26 15 27 17 27 40 1z m-583 -9 c17 -11 38 -20 48 -20 10 0 32 -7 49 -16
28 -14 29 -17 14 -26 -10 -6 -38 -7 -62 -3 -28 4 -44 2 -44 -4 0 -6 -3 -10 -7
-9 -5 0 -16 -2 -26 -7 -11 -4 -28 -2 -42 5 -22 12 -26 10 -50 -19 -32 -37 -55
-40 -55 -7 0 27 44 86 65 86 7 0 15 9 18 20 7 26 52 26 92 0z m7918 -46 c3 -3
34 -7 69 -8 35 -2 169 -15 298 -30 129 -14 298 -31 375 -37 77 -6 145 -15 151
-20 6 -5 85 -13 175 -19 90 -5 180 -14 199 -20 45 -13 106 -13 131 0 36 20 40
-22 29 -274 -6 -127 -15 -244 -20 -261 -5 -16 -12 -48 -15 -69 -5 -46 -17 -61
-40 -52 -14 5 -16 15 -10 58 4 29 12 60 18 70 6 9 9 19 6 22 -3 3 -70 10 -149
16 -356 26 -400 34 -400 75 0 12 -138 40 -250 51 -119 11 -253 33 -263 43 -5
5 -4 17 3 31 14 27 8 44 -24 65 -24 16 -28 16 -71 -5 -43 -21 -45 -23 -40 -58
3 -21 6 -57 8 -82 l2 -45 -40 2 c-22 1 -69 3 -105 5 l-65 3 -1 -43 c-1 -45
-15 -69 -33 -58 -6 4 -11 20 -11 35 0 15 -5 32 -10 37 -7 7 -6 20 5 40 8 16
15 41 15 56 0 28 -6 31 -64 40 -11 2 -21 9 -24 17 -5 14 11 12 70 -5 24 -7 26
7 33 229 6 177 9 197 24 197 10 0 20 -3 24 -6z m-2217 -116 c12 -13 27 -27 33
-33 37 -36 91 -104 91 -114 0 -14 -196 -16 -205 -1 -3 5 -1 29 5 52 6 24 16
60 21 81 11 43 23 46 55 15z m-5902 -188 c16 -16 17 -22 6 -34 -7 -9 -21 -16
-31 -16 -10 0 -23 -9 -29 -20 -11 -21 -60 -28 -60 -9 0 6 -10 9 -22 8 -18 -1
-93 24 -106 36 -2 1 0 14 3 28 7 25 10 26 88 30 103 4 127 0 151 -23z m588
-72 c2 -16 9 -22 23 -21 11 1 31 4 45 5 22 3 26 -1 30 -35 3 -21 8 -38 13 -37
4 0 11 0 16 0 5 0 11 14 15 30 5 28 8 30 55 30 27 0 53 -6 58 -12 18 -23 24
-69 12 -84 -12 -15 -50 -20 -48 -6 1 4 1 13 0 19 -1 18 -75 11 -98 -8 -40 -34
-94 -58 -147 -64 -48 -6 -56 -5 -56 9 0 9 -14 30 -30 46 -33 32 -32 50 2 50
12 0 30 7 40 17 10 9 18 11 18 6 0 -14 38 -24 46 -12 3 6 -2 21 -11 35 -16 25
-14 54 4 54 5 0 11 -10 13 -22z m609 -55 c28 -17 42 -63 18 -63 -6 0 -3 -7 6
-16 11 -12 25 -14 48 -10 100 20 126 12 157 -49 11 -22 20 -44 20 -50 0 -6 20
-18 45 -27 37 -14 51 -15 71 -6 30 14 48 -3 39 -37 -2 -11 -5 -28 -5 -37 0
-23 -14 -23 -36 -1 -25 25 -39 24 -76 -7 -43 -36 -69 -26 -61 24 6 37 -8 54
-27 31 -16 -19 -40 -19 -40 0 0 8 7 15 15 15 18 0 18 5 5 31 -12 21 -64 27
-76 8 -3 -6 4 -25 17 -42 15 -20 18 -32 11 -35 -22 -7 -12 -29 23 -53 41 -28
42 -38 12 -99 -23 -46 -22 -46 -102 -49 -22 -1 -33 -8 -42 -28 -7 -15 -13 -33
-13 -39 0 -7 -13 -22 -30 -34 -28 -20 -42 -60 -20 -60 27 0 5 -28 -41 -53 -49
-26 -52 -26 -65 -10 -7 10 -14 25 -14 34 0 19 -34 31 -48 17 -6 -6 -11 -4 -15
6 -4 10 -1 13 9 9 9 -3 14 1 14 12 0 10 -5 15 -13 12 -24 -9 -39 7 -24 27 15
20 47 12 47 -11 0 -10 7 -14 19 -10 13 3 21 -1 24 -12 3 -10 5 -8 6 7 0 12 8
25 17 29 37 14 30 91 -9 106 -22 8 -27 56 -8 70 33 24 32 36 -9 78 -45 47 -50
69 -19 98 12 11 20 29 18 43 -3 30 38 98 60 98 9 0 22 -9 29 -20 7 -11 22 -20
35 -20 18 0 22 5 22 28 -1 21 -10 31 -38 45 -38 19 -45 35 -25 55 16 16 35 15
69 -5z m-6953 -259 c7 -12 23 -17 53 -16 31 0 51 -6 67 -21 32 -30 27 -44 -18
-52 -32 -5 -40 -11 -41 -28 -1 -16 -2 -18 -6 -5 -5 20 -38 27 -76 15 -19 -6
-43 -5 -73 3 -58 17 -76 34 -65 63 7 18 16 22 60 23 59 2 82 13 30 15 l-34 2
40 7 c22 4 43 8 47 9 4 0 11 -6 16 -15z m12811 -296 c13 -9 20 -21 17 -26 -8
-14 12 -65 23 -58 5 3 12 -4 16 -17 l8 -22 4 22 c5 24 33 53 33 34 0 -6 5 -11
10 -11 6 0 10 6 10 13 0 6 14 13 30 14 17 1 28 -2 25 -7 -3 -5 5 -18 17 -29
12 -12 23 -34 24 -50 1 -16 5 -34 8 -40 7 -10 -39 -5 -58 7 -12 7 -23 10 -51
14 -11 2 -23 7 -26 11 -8 10 -91 13 -146 5 -24 -3 -45 -2 -49 3 -3 5 -15 9
-27 9 -13 0 -32 7 -43 15 -12 8 -24 11 -28 8 -3 -3 -6 6 -6 20 0 15 6 27 13
28 42 2 72 9 75 18 2 6 12 21 22 34 23 29 62 31 99 5z m-13918 -40 c46 -26 50
-52 12 -72 -16 -8 -39 -26 -52 -40 -24 -25 -61 -36 -61 -17 0 5 -11 12 -25 15
-14 4 -25 13 -25 21 0 24 23 65 36 65 8 0 21 11 30 25 20 31 35 31 85 3z m399
-278 c5 0 22 -19 39 -42 16 -24 50 -65 76 -92 45 -46 47 -50 29 -63 -10 -7
-30 -11 -44 -8 -14 3 -72 6 -130 6 -102 2 -170 17 -170 38 0 6 16 13 35 17 28
5 38 14 56 51 29 61 68 105 86 99 8 -4 19 -6 23 -6z m13650 -127 c16 -9 26
-21 23 -27 -4 -5 1 -7 11 -3 10 4 19 1 22 -8 4 -8 17 -15 31 -15 13 0 22 -4
18 -9 -7 -12 33 -51 51 -51 7 0 17 8 23 17 5 10 13 14 17 10 5 -5 2 -12 -6
-18 -12 -7 -12 -11 -2 -17 21 -14 3 -41 -31 -47 -45 -9 -176 1 -214 15 -17 6
-34 18 -37 26 -7 19 -60 18 -77 -2 -14 -17 -29 -16 -141 9 -66 14 -103 42 -78
57 19 12 76 13 118 1 30 -9 32 -8 27 10 -5 13 -1 21 12 25 10 3 26 10 35 15
10 5 26 9 37 9 10 0 25 7 32 16 16 20 86 13 129 -13z m860 -109 c41 -9 91 -17
112 -19 54 -6 141 -54 133 -74 -4 -9 -9 -21 -12 -27 -2 -7 12 -14 34 -17 36
-6 70 -37 56 -51 -16 -16 -143 8 -143 26 0 4 -7 5 -15 2 -8 -4 -15 -2 -15 4 0
6 14 13 30 17 33 7 33 7 24 29 -4 10 -19 16 -43 17 -20 0 -45 4 -56 8 -11 5
-38 3 -61 -4 -48 -14 -113 -6 -164 20 -61 32 -69 35 -95 35 -37 0 -31 28 8 39
50 14 125 13 207 -5z m871 -87 c72 7 96 5 164 -13 91 -25 133 -45 161 -75 10
-11 38 -29 62 -40 33 -16 42 -24 37 -38 -3 -10 1 -24 10 -31 22 -18 19 -48 -6
-55 -25 -8 -89 2 -107 18 -8 6 -65 13 -127 15 l-113 4 -6 29 c-4 20 -11 29
-26 29 -12 0 -22 9 -25 23 -7 27 -48 36 -43 9 3 -9 10 -16 16 -15 7 2 12 -9
12 -26 0 -35 -27 -44 -75 -25 -43 17 -128 28 -215 29 -75 0 -75 0 -73 27 1 16
-5 29 -14 32 -20 8 -21 7 -28 -34 -18 -112 -22 -146 -18 -156 2 -6 -1 -23 -7
-39 -10 -26 -11 -27 -24 -10 -12 17 -13 87 -1 121 2 6 -4 39 -12 72 -19 78
-11 129 22 142 28 11 55 4 55 -14 0 -31 23 -35 55 -10 19 14 46 24 66 25 19 0
43 4 53 8 11 4 42 3 71 -1 29 -5 89 -6 136 -1z m-6077 -196 c15 -26 16 -37 8
-57 -8 -16 -8 -32 -2 -48 13 -35 -10 -116 -43 -151 l-26 -29 -12 30 c-18 46
-5 237 18 268 22 31 32 29 57 -13z m6656 -38 c1 -10 3 -57 5 -105 4 -67 0
-101 -14 -149 -16 -51 -17 -64 -7 -75 15 -15 20 -118 10 -230 -7 -81 -14 -97
-37 -88 -25 9 -31 67 -17 167 8 51 14 157 15 237 1 80 5 161 9 180 4 19 9 45
12 58 5 26 24 30 24 5z m-7321 -417 c52 -15 59 -29 60 -110 1 -42 -4 -65 -16
-78 -24 -26 -82 -23 -127 7 -20 14 -40 24 -44 24 -43 -7 -72 34 -72 99 0 49
19 66 62 59 18 -3 42 -2 53 3 28 12 34 12 84 -4z"/>
<path d="M10670 5133 c0 -24 3 -43 6 -43 3 0 17 9 31 20 15 11 29 18 32 14 3
-3 -5 -14 -18 -25 -13 -11 -22 -21 -20 -24 10 -9 150 -21 155 -13 8 12 5 14
-41 25 -51 11 -47 28 5 24 37 -2 40 -1 40 23 0 20 -5 26 -22 27 -13 0 -56 4
-95 8 l-73 7 0 -43z"/>
<path d="M10669 10053 c-44 -50 -71 -93 -91 -146 -108 -281 -152 -630 -90
-713 12 -18 22 -36 20 -40 -8 -32 17 -89 58 -128 48 -47 54 -61 25 -69 -12 -3
-18 -13 -18 -31 0 -28 20 -51 36 -42 5 3 15 -7 22 -23 l13 -29 18 23 c9 12 17
35 16 51 -2 36 10 215 20 313 10 84 5 120 -14 128 -21 8 -39 84 -23 94 8 4 10
12 5 16 -5 4 -11 2 -13 -4 -3 -7 -9 -13 -15 -13 -10 0 -8 23 8 79 4 14 3 22
-2 19 -17 -11 -9 125 9 161 9 18 14 37 11 42 -3 5 9 40 27 77 18 37 32 75 31
84 0 10 3 20 9 23 5 4 9 1 9 -5 0 -6 5 -8 10 -5 8 5 7 11 -1 21 -15 18 -34 18
-53 -1 -8 -8 -17 -15 -19 -15 -6 0 9 48 30 97 12 30 9 63 -6 63 -4 0 -19 -12
-32 -27z"/>
<path d="M11081 9202 c-6 -2 -9 -8 -5 -13 6 -11 6 -11 -34 0 -25 8 -32 7 -32
-5 0 -8 -9 -14 -20 -14 -11 0 -20 4 -20 9 0 16 -95 6 -124 -13 -34 -21 -59
-79 -51 -115 3 -14 1 -40 -4 -57 -8 -29 -7 -31 33 -42 35 -10 49 -9 95 7 37
13 58 26 63 41 l8 23 26 -28 c23 -25 30 -27 72 -21 32 4 53 14 64 29 l18 22 6
-22 c5 -18 14 -23 40 -23 18 0 36 5 39 11 4 5 19 8 33 4 l27 -5 1 68 c1 61 -1
69 -22 79 -14 6 -26 7 -32 1 -6 -6 -23 4 -46 28 -30 31 -43 37 -80 39 -23 0
-48 -1 -55 -3z"/>
<path d="M11678 8599 c-4 -27 -43 -58 -83 -65 -16 -3 -32 -9 -35 -13 -3 -4
-26 -20 -51 -34 -59 -35 -118 -35 -185 -3 -69 33 -94 38 -94 18 0 -10 4 -22 8
-28 14 -21 101 -74 121 -74 16 0 21 -6 21 -25 0 -20 6 -25 38 -30 20 -3 45 -8
54 -9 9 -2 19 4 21 13 4 13 6 11 12 -6 8 -25 20 -29 30 -13 4 6 15 8 26 5 14
-5 28 2 48 24 16 17 33 31 38 31 4 0 19 19 32 42 19 33 24 58 25 115 1 51 -2
73 -11 73 -6 0 -13 -10 -15 -21z"/>
<path d="M11779 8342 c-13 -8 -35 -23 -49 -32 -32 -22 -81 -33 -138 -32 -24 1
-54 -6 -67 -14 -13 -9 -29 -13 -35 -9 -6 4 -17 1 -25 -5 -8 -7 -15 -9 -15 -5
0 4 -6 3 -13 -4 -13 -10 -114 0 -136 13 -5 3 -42 10 -82 16 -40 6 -80 17 -89
25 -32 29 -70 11 -70 -32 0 -18 7 -23 38 -29 20 -4 59 -15 85 -26 50 -19 67
-17 67 7 0 16 77 18 97 2 7 -5 16 -6 21 -3 4 3 27 -2 51 -10 30 -10 47 -11 61
-4 10 5 35 10 55 10 20 0 45 5 56 11 26 14 49 -4 49 -38 0 -20 4 -24 18 -18 9
4 24 8 32 9 9 1 21 5 27 9 24 15 22 -11 -2 -27 -28 -19 -33 -36 -9 -36 23 0
12 -22 -22 -42 -29 -17 -134 -34 -252 -41 -75 -4 -101 -21 -48 -31 20 -4 41
-4 46 -1 6 3 10 1 10 -5 0 -6 5 -8 10 -5 6 3 17 -1 26 -9 18 -18 126 -16 162
3 31 17 53 14 45 -5 -4 -12 -2 -15 8 -12 8 3 13 13 13 22 -1 9 2 16 6 16 7 0
80 124 80 136 0 2 -9 0 -19 -6 -28 -14 -38 6 -16 30 25 28 98 61 126 58 21 -3
24 1 22 25 -5 65 -77 117 -124 89z"/>
<path d="M4393 5953 c-7 -3 -13 -13 -13 -22 0 -15 -8 -17 -54 -13 -59 5 -96
-9 -96 -37 0 -28 20 -39 95 -51 54 -9 70 -8 76 2 12 18 11 46 -1 53 -16 10
-11 33 7 31 10 0 19 6 21 15 3 18 -15 29 -35 22z"/>
<path d="M7745 5210 c-11 -4 -35 -5 -52 -2 -38 5 -49 -11 -34 -51 7 -18 18
-27 33 -28 13 0 17 -3 10 -6 -8 -3 -33 0 -58 7 -34 10 -47 10 -58 0 -9 -6 -20
-9 -27 -5 -20 13 -77 17 -84 6 -10 -16 -45 -13 -45 4 0 21 -29 19 -36 -2 -3
-10 -8 -25 -12 -33 -3 -8 -6 -17 -6 -20 -1 -3 -5 -11 -10 -18 -16 -26 1 -21
32 9 26 25 34 28 51 20 16 -9 22 -8 29 6 9 14 13 15 26 4 9 -7 16 -10 16 -6 0
4 6 2 14 -4 14 -12 46 -5 58 13 5 6 8 3 8 -9 0 -18 8 -21 60 -23 38 -2 60 1
60 7 0 6 7 11 15 11 8 0 15 5 15 10 0 6 -7 10 -17 10 -9 0 -13 3 -9 8 4 4 18
7 29 7 17 0 23 7 25 32 4 43 -8 62 -33 53z"/>
<path d="M4121 2988 c-4 -13 -13 -54 -20 -93 -16 -100 -60 -294 -76 -335 -27
-69 -27 -78 -5 -85 26 -8 30 -5 36 31 3 16 9 43 14 59 10 31 27 120 37 188 3
20 9 40 14 43 5 3 9 14 9 25 0 11 7 31 16 44 12 18 14 37 9 80 -8 62 -21 78
-34 43z"/>
<path d="M10973 2870 c-17 -7 -23 -18 -23 -40 0 -27 3 -30 21 -25 14 5 20 3
18 -7 -1 -7 -1 -18 0 -24 1 -15 101 -24 124 -12 13 6 28 6 47 -2 38 -16 111
-4 103 16 -6 17 -35 18 -51 2 -8 -8 -15 -8 -27 2 -11 9 -13 15 -5 20 7 5 4 9
-9 13 -12 3 -21 1 -21 -4 0 -5 -15 -8 -33 -6 -27 1 -33 6 -29 20 4 14 -2 17
-33 17 -28 0 -38 5 -42 20 -6 22 -8 23 -40 10z"/>
<path d="M5502 2734 c-13 -9 -29 -14 -36 -11 -26 10 -58 -28 -63 -76 -5 -39
-2 -48 13 -54 11 -4 19 -2 22 6 3 9 10 8 29 -4 23 -16 26 -16 47 4 27 25 36
26 36 5 0 -11 -5 -14 -16 -10 -11 4 -14 1 -9 -13 6 -20 -9 -37 -39 -42 -11 -2
-21 -9 -23 -15 -2 -7 16 -11 49 -10 29 0 75 -2 102 -4 42 -3 51 0 66 21 17 21
18 22 17 4 -2 -18 5 -20 82 -23 59 -2 87 1 92 10 6 9 13 9 34 0 31 -14 62 -16
69 -3 10 15 -4 40 -25 46 -21 7 -116 -13 -136 -28 -9 -6 -19 -5 -29 4 -13 10
-17 10 -24 -2 -8 -12 -12 -11 -23 5 -12 16 -22 18 -60 13 -32 -5 -49 -3 -54 6
-4 6 -17 17 -28 23 -15 8 -21 23 -23 55 -6 111 -19 129 -70 93z"/>
<path d="M11480 2500 c-8 -5 -30 -10 -48 -10 -40 0 -58 -35 -45 -90 8 -31 12
-35 38 -32 77 8 146 9 196 1 97 -15 322 -48 439 -64 132 -19 221 -40 230 -55
4 -6 29 -13 56 -16 45 -6 51 -4 62 18 10 18 10 31 3 52 -6 15 -11 39 -12 54 0
22 -2 24 -8 8 -10 -27 -59 -29 -106 -5 -21 12 -41 17 -42 12 -4 -10 -145 1
-164 13 -6 4 -35 8 -63 9 -28 2 -62 6 -76 10 -14 4 -70 11 -126 16 -55 4 -113
13 -128 19 -15 5 -32 8 -37 4 -5 -3 -9 0 -9 7 0 8 -4 8 -15 -1 -13 -10 -15 -9
-15 10 0 18 -4 21 -22 17 -21 -5 -21 -5 -5 7 9 7 17 17 17 21 0 4 -6 3 -12 -2
-7 -6 -25 -13 -40 -17 -14 -3 -34 -9 -45 -12 -15 -5 -15 -4 -3 5 20 14 1 34
-20 21z"/>
<path d="M4734 2239 c-8 -13 -7 -237 2 -250 8 -14 111 -11 116 4 2 6 1 66 -2
132 l-5 120 -52 3 c-32 2 -54 -2 -59 -9z"/>
<path d="M10994 2236 c-18 -13 -21 -26 -22 -101 -1 -82 0 -86 24 -97 32 -15
71 3 76 34 2 17 8 22 23 20 11 -2 23 -9 27 -15 4 -6 22 -13 40 -15 18 -2 35
-8 36 -13 6 -14 54 -11 50 4 -3 6 -10 12 -15 12 -6 0 -15 4 -19 8 -11 11 15
27 44 27 12 0 22 5 22 11 0 5 5 7 11 4 6 -4 10 -19 9 -33 -3 -40 -1 -52 9 -52
5 0 8 26 7 58 -1 56 -4 60 -38 47 -14 -5 -18 -2 -18 13 0 11 4 22 8 24 5 2 12
17 15 34 5 28 4 31 -21 32 -15 0 -49 3 -77 5 -67 7 -85 1 -85 -29 0 -21 -4
-24 -27 -22 -20 2 -29 10 -33 27 -6 30 -20 35 -46 17z"/>
<path d="M4293 2228 c-12 -21 -3 -241 11 -256 9 -10 26 -11 62 -5 l49 9 -2
119 c-2 100 -5 122 -20 132 -22 17 -90 17 -100 1z"/>
<path d="M7850 1981 c-149 -143 -179 -162 -250 -158 -31 2 -42 44 -13 53 50
16 73 27 73 35 0 13 -56 11 -83 -3 -12 -6 -28 -14 -36 -18 -9 -3 -16 -25 -18
-53 -5 -54 -2 -55 107 -59 56 -3 65 -6 69 -23 8 -45 51 -35 51 12 0 33 74 127
207 264 31 32 44 53 41 68 -2 18 -26 -1 -148 -118z"/>
<path d="M13288 2006 c-8 -7 -28 -21 -45 -30 -17 -8 -34 -24 -37 -33 -5 -15
-15 -17 -56 -14 -47 3 -53 6 -77 42 -17 25 -33 39 -47 39 -22 0 -22 -1 -20
-195 2 -140 -1 -198 -9 -205 -7 -6 -35 -28 -64 -50 -35 -27 -54 -50 -58 -71
-4 -17 -31 -58 -61 -91 -30 -34 -52 -63 -50 -66 7 -6 80 53 104 82 31 40 58
49 91 31 38 -19 64 -19 101 0 32 17 50 43 50 73 0 31 -25 33 -57 6 -30 -26
-48 -30 -58 -14 -3 6 -1 10 6 10 18 0 38 32 39 62 0 33 19 45 88 54 58 7 70
17 50 41 -11 14 -10 16 9 11 12 -3 24 -1 26 6 3 8 11 7 30 -3 14 -7 33 -11 43
-7 21 8 45 -11 37 -30 -3 -9 2 -14 16 -14 23 0 28 15 9 24 -10 5 -10 7 0 12 6
3 10 9 7 14 -3 4 4 6 15 3 11 -3 18 -9 15 -13 -3 -5 4 -6 16 -3 15 4 22 0 26
-16 3 -11 10 -18 15 -14 6 3 9 0 6 -8 -3 -8 -20 -17 -39 -20 -33 -5 -31 -8 14
-23 13 -4 16 -2 11 7 -5 8 -2 7 9 -2 14 -11 17 -11 17 -1 0 8 6 21 14 29 8 9
17 28 20 43 2 15 9 35 14 44 8 14 10 10 16 -18 3 -19 6 -61 5 -94 -2 -74 6
-100 31 -107 24 -6 38 12 19 25 -11 8 -10 8 4 4 10 -3 23 -6 28 -6 16 0 10
-28 -9 -42 -13 -10 -16 -21 -11 -48 5 -27 7 -29 8 -10 l1 25 13 -24 c15 -30
97 -74 120 -65 9 3 17 15 17 25 0 16 8 14 74 -19 41 -20 75 -42 75 -49 1 -6
10 -14 21 -18 11 -3 33 -20 50 -36 16 -17 30 -27 30 -24 0 4 6 3 13 -3 6 -6
16 -10 20 -10 20 0 19 -13 -1 -19 -30 -7 -19 -22 12 -16 18 4 27 14 31 34 4
16 11 26 16 23 6 -4 6 -11 -2 -20 -6 -8 -9 -23 -6 -34 3 -11 1 -20 -4 -20 -5
0 -9 -14 -9 -30 0 -28 2 -30 20 -20 11 6 20 20 20 30 0 11 6 20 13 20 8 0 22
10 33 21 10 12 30 25 43 31 17 6 21 12 14 19 -8 8 -1 20 23 41 19 17 34 36 34
44 0 8 10 14 23 14 15 0 23 6 24 19 2 26 73 90 100 91 20 0 53 -23 53 -38 0
-11 -78 -92 -89 -92 -5 0 -12 -8 -15 -17 -8 -24 -61 -83 -75 -83 -6 0 -13 -11
-17 -24 -3 -13 -28 -45 -55 -71 -27 -25 -49 -50 -49 -55 0 -5 -17 -25 -37 -44
-27 -25 -33 -36 -21 -36 9 0 34 -18 55 -40 l38 -40 94 -4 c52 -3 97 -8 100
-13 12 -16 60 -35 75 -30 8 3 18 2 21 -3 4 -6 17 -10 30 -10 13 0 26 -4 30
-10 3 -5 11 -7 18 -4 7 2 41 -2 75 -10 34 -8 70 -12 80 -10 9 3 31 -2 47 -10
17 -9 38 -16 47 -16 19 0 88 56 88 72 0 6 18 33 40 60 22 28 40 55 40 59 0 5
6 9 13 9 25 1 147 157 147 189 0 13 5 19 14 15 15 -6 26 23 26 68 0 21 4 25
20 21 13 -3 20 0 20 8 0 27 24 -11 35 -54 7 -31 16 -44 36 -51 55 -19 106 15
81 55 -17 27 -15 57 5 68 15 8 16 15 7 48 -7 28 -7 60 2 113 13 78 10 89 -26
90 -27 0 -53 63 -46 112 4 24 6 48 6 53 0 11 -65 19 -280 34 -124 9 -206 18
-330 36 -14 2 -90 11 -170 20 -128 14 -192 22 -305 39 -16 3 -75 10 -130 16
-106 11 -121 13 -230 30 -64 10 -310 40 -327 40 -5 0 -8 -29 -8 -65 0 -68 -15
-115 -36 -115 -21 0 -24 14 -27 104 l-2 86 -60 6 c-48 6 -65 13 -86 36 -31 32
-33 33 -51 14z"/>
<path d="M12077 2004 c-12 -13 -8 -239 5 -252 17 -17 63 -15 78 3 15 18 10
219 -6 235 -13 13 -67 23 -77 14z"/>
<path d="M12849 1914 c-30 -31 -60 -62 -68 -71 -17 -18 -26 -343 -9 -343 26 0
137 103 135 125 -1 6 -8 9 -16 7 -23 -6 -31 19 -24 72 6 45 5 48 -15 42 -41
-13 -40 48 1 63 18 7 22 16 22 52 0 36 4 46 23 54 22 10 30 39 13 49 -4 3 -32
-20 -62 -50z"/>
<path d="M3907 1848 c-9 -30 4 -44 39 -40 l34 4 0 -45 c0 -25 3 -48 8 -50 4
-3 37 -3 74 0 66 6 67 6 66 34 -1 22 -6 29 -21 29 -12 0 -17 -5 -14 -13 3 -8
-1 -14 -9 -14 -21 0 -17 23 9 40 19 14 20 18 7 26 -8 6 -22 8 -30 4 -8 -3 -32
-8 -52 -11 -30 -3 -38 -1 -38 12 0 9 -12 21 -26 26 -33 13 -41 13 -47 -2z"/>
<path d="M4889 1795 c-24 -54 -41 -152 -43 -253 -1 -42 -5 -62 -13 -62 -40 0
23 -50 70 -56 17 -2 44 2 60 9 28 12 29 13 22 70 -3 33 -10 69 -14 81 -5 11
-14 64 -21 116 -7 52 -18 106 -25 120 l-13 25 -23 -50z"/>
<path d="M12593 1668 c-56 -59 -57 -66 -57 -293 -1 -221 -3 -234 -48 -235 -24
0 -30 -14 -33 -76 -4 -61 13 -80 59 -68 29 7 38 26 27 57 -13 37 1 62 77 142
73 76 73 76 51 94 -18 15 -22 29 -25 115 -2 54 -9 105 -15 112 -9 11 -9 14 0
14 8 0 11 27 10 85 -1 47 -4 85 -8 85 -4 0 -21 -15 -38 -32z"/>
<path d="M4340 1657 c-3 -2 -113 -7 -244 -10 -177 -4 -241 -9 -247 -18 -4 -7
-6 -16 -4 -20 5 -6 274 -2 519 10 98 4 141 10 144 19 2 8 -9 12 -36 12 -21 0
-59 3 -83 6 -24 3 -46 4 -49 1z"/>
<path d="M8414 1521 c-18 -11 -45 -36 -60 -57 -16 -20 -37 -44 -46 -53 -94
-89 -258 -264 -263 -281 -4 -11 -12 -20 -20 -20 -7 0 -19 -10 -28 -22 -8 -13
-26 -35 -41 -49 -31 -31 -26 -59 11 -59 28 0 90 58 110 102 29 64 278 308 315
308 67 0 139 -48 309 -204 30 -28 88 -80 127 -116 77 -72 102 -109 102 -155 0
-41 24 -105 35 -97 30 21 46 57 60 128 19 100 19 130 -1 138 -10 4 -13 13 -9
27 5 15 4 19 -4 15 -6 -4 -11 -14 -11 -21 0 -8 -12 -18 -26 -21 -22 -6 -35 3
-91 60 -36 36 -67 66 -70 66 -2 0 -16 12 -32 28 -15 15 -45 41 -66 57 -21 17
-45 38 -54 49 -9 10 -22 24 -30 30 -27 22 -107 97 -141 131 -19 19 -37 35 -40
35 -3 0 -19 -9 -36 -19z"/>
<path d="M3716 1505 c-14 -11 -18 -26 -17 -65 1 -70 14 -92 54 -88 22 2 33 9
37 25 3 12 15 33 27 47 16 18 19 26 9 26 -8 0 -23 16 -35 35 -22 37 -44 43
-75 20z"/>
<path d="M10608 1489 c-13 -7 -18 -23 -18 -53 0 -46 19 -72 44 -63 8 3 29 2
48 -3 18 -5 69 -11 113 -14 44 -4 111 -11 148 -17 59 -10 71 -9 86 5 16 14 17
23 9 59 -5 23 -10 42 -11 43 -1 1 -51 8 -112 15 -60 7 -112 16 -115 19 -9 13
-174 20 -192 9z"/>
<path d="M13274 1265 c3 -8 9 -22 12 -30 4 -9 -1 -17 -11 -21 -9 -4 -20 -17
-25 -30 -6 -15 -19 -24 -37 -26 -17 -2 -28 -9 -28 -18 0 -8 -7 -23 -15 -33 -8
-9 -17 -27 -20 -40 -5 -17 -14 -23 -42 -25 -24 -2 -44 -12 -60 -30 -21 -24
-45 -35 -127 -58 -8 -3 -12 -13 -8 -30 2 -14 -2 -31 -9 -39 -12 -11 -11 -19 1
-49 17 -39 19 -36 -54 -73 -24 -13 -47 -20 -51 -18 -4 3 -11 -2 -14 -11 -3 -9
-16 -15 -28 -14 -52 5 -57 1 -56 -35 1 -40 -9 -56 -22 -35 -14 22 -45 -1 -45
-33 1 -18 -8 -30 -31 -42 -21 -11 -30 -22 -27 -34 6 -24 -18 -41 -46 -34 -19
5 -22 11 -19 35 3 16 2 31 -2 33 -8 5 -80 -30 -89 -42 -3 -5 -15 -13 -25 -19
-11 -6 -24 -18 -30 -27 -18 -28 33 -62 102 -69 6 -1 12 -5 12 -9 0 -12 61 -39
87 -39 13 0 33 -5 44 -11 12 -6 46 -12 77 -14 88 -6 136 -15 143 -26 3 -5 10
-9 15 -8 5 2 36 -1 69 -5 33 -4 112 -9 176 -10 91 -3 122 -7 144 -22 25 -16
28 -16 36 -2 5 9 22 19 38 23 19 4 39 22 62 56 19 27 42 52 52 55 9 3 28 27
42 54 14 27 29 51 35 55 15 9 12 25 -5 25 -12 0 -14 14 -13 70 0 39 5 70 9 70
14 0 49 43 49 61 0 10 7 24 15 33 8 8 15 18 15 21 0 11 64 69 73 67 4 -1 7 4
7 12 0 21 -27 38 -50 31 -16 -5 -20 -2 -20 16 0 12 8 29 18 38 22 20 25 56 6
72 -8 6 -14 18 -14 26 0 10 -7 14 -20 10 -11 -3 -20 -2 -20 1 0 9 -118 132
-126 132 -3 0 -18 9 -33 19 -18 13 -32 17 -42 10 -22 -13 -29 -11 -29 11 0 10
-9 24 -19 30 -27 14 -34 13 -27 -5z"/>
<path d="M10465 1100 c-9 -29 5 -86 25 -105 12 -11 31 -15 57 -13 l38 3 3 49
c3 42 0 53 -20 68 -32 25 -95 24 -103 -2z"/>
<path d="M4770 833 c-19 -2 -123 -7 -230 -13 -189 -9 -391 -27 -399 -36 -22
-21 96 -28 261 -15 128 11 229 2 236 -19 2 -6 10 -10 18 -10 9 0 13 4 10 9 -3
4 3 16 14 26 15 14 40 18 107 20 56 1 98 8 116 17 l27 15 -37 7 c-38 6 -56 6
-123 -1z"/>
<path d="M5503 828 c-40 -64 -44 -83 -38 -178 3 -52 9 -98 14 -103 14 -14 37
-2 57 28 15 22 16 32 6 59 -7 18 -12 44 -12 59 0 14 -4 29 -10 32 -16 10 -12
37 10 60 12 13 18 29 14 38 -7 20 -30 22 -41 5z"/>
<path d="M5125 746 c-12 -8 -34 -16 -50 -18 -24 -2 -31 -8 -33 -30 -4 -34 4
-35 28 -6 15 19 20 20 34 9 9 -7 16 -19 16 -27 0 -7 8 -17 18 -22 23 -12 234
6 248 21 7 7 15 27 19 45 l7 32 -99 0 c-54 0 -114 3 -133 6 -23 3 -42 0 -55
-10z"/>
<path d="M3038 493 c-10 -2 -18 -9 -18 -14 0 -5 -7 -9 -15 -9 -20 0 -57 -41
-51 -57 3 -7 -7 -21 -21 -30 -48 -33 -182 -166 -176 -176 7 -11 -16 -86 -32
-107 -7 -8 -11 -20 -8 -26 4 -11 -59 -34 -92 -34 -11 0 -15 -5 -11 -16 3 -9 6
-18 6 -20 0 -2 235 -4 523 -4 409 0 527 3 541 13 13 10 17 24 14 67 -3 52 -5
55 -35 65 -18 5 -33 13 -33 17 0 4 -6 8 -14 8 -8 0 -21 6 -28 13 -7 6 -26 17
-43 23 -18 6 -29 16 -29 27 1 11 -9 19 -34 23 -44 9 -92 50 -92 80 0 32 -8 34
-70 18 -58 -15 -94 -12 -147 12 -22 10 -33 22 -33 36 0 23 -37 88 -50 88 -5 0
-14 2 -22 4 -7 2 -21 2 -30 -1z"/>
<path d="M14919 368 c-1 -7 -1 -16 0 -21 1 -4 -9 -12 -21 -18 -13 -5 -34 -16
-48 -24 -14 -8 -37 -15 -52 -15 -31 0 -69 -15 -117 -48 -19 -12 -41 -20 -48
-18 -7 3 -15 1 -17 -3 -7 -10 -56 -2 -74 12 -9 7 -16 7 -23 0 -8 -8 -22 -6
-49 4 -36 15 -41 14 -74 -6 -32 -20 -42 -21 -93 -14 -32 5 -69 6 -83 3 -32 -8
-33 -41 -3 -55 30 -13 37 -33 18 -51 -17 -17 -17 -18 -19 -57 -3 -38 36 -54
131 -54 59 -1 72 2 76 17 4 18 47 32 106 35 18 1 36 6 40 11 3 5 22 15 41 22
33 12 36 11 57 -15 18 -23 31 -27 80 -30 73 -3 107 -8 121 -17 6 -3 32 -2 58
4 40 9 49 8 66 -6 12 -12 22 -14 29 -7 7 7 25 6 57 -2 65 -17 167 -11 229 14
l52 20 36 -24 c31 -22 47 -25 117 -25 64 0 79 3 70 12 -19 19 -14 25 29 31 26
3 49 15 65 32 24 26 32 55 14 55 -5 0 -20 10 -33 23 -13 12 -34 30 -46 40 -22
18 -24 18 -42 -2 -11 -12 -29 -21 -40 -21 -14 0 -25 -13 -39 -45 -11 -25 -23
-45 -28 -45 -6 0 -22 17 -38 37 -15 21 -29 40 -31 42 -1 2 -20 4 -42 3 -38 -2
-64 15 -67 42 0 6 -2 17 -2 24 -1 7 -16 12 -36 12 -44 0 -135 52 -161 93 -22
35 -47 45 -117 46 -32 1 -48 -3 -49 -11z"/>
<path d="M12165 293 c-37 -3 -57 -11 -78 -31 -26 -24 -28 -32 -24 -75 3 -39 1
-47 -12 -45 -10 2 -17 -5 -19 -19 -2 -13 -8 -23 -14 -23 -5 0 -8 -7 -5 -15 4
-8 2 -17 -3 -20 -6 -4 -10 -1 -10 4 0 6 -13 11 -28 11 -38 0 -38 -26 1 -34 23
-5 28 -10 24 -26 -5 -20 0 -20 240 -20 l245 0 -31 32 c-17 17 -31 40 -31 49 0
10 -7 24 -15 33 -8 8 -15 18 -15 23 0 4 -14 21 -30 37 -17 16 -30 37 -30 47 0
9 -6 19 -14 22 -8 3 -16 16 -18 29 -3 25 -29 29 -133 21z"/>
<path d="M686 236 c5 -13 35 -24 84 -32 8 -1 38 -7 65 -13 28 -7 85 -17 128
-23 72 -10 79 -9 92 8 25 33 17 41 -47 48 -35 3 -96 9 -136 14 -40 4 -79 4
-87 0 -7 -5 -16 -4 -20 2 -3 5 -24 10 -45 10 -30 0 -38 -3 -34 -14z"/>
<path d="M4945 169 c-23 -14 -35 -30 -30 -40 6 -9 82 -28 140 -34 28 -3 104
-14 170 -25 321 -51 510 -70 680 -70 170 0 195 5 195 35 0 19 -35 54 -51 51
-8 -1 -31 -10 -53 -19 -51 -23 -92 -21 -276 7 -85 14 -204 32 -265 41 -178 25
-247 36 -293 46 -76 17 -195 21 -217 8z"/>
<path d="M915 81 c-33 -16 -86 -32 -118 -36 -42 -5 -60 -12 -67 -26 -10 -18
-5 -19 181 -19 l191 0 -16 22 c-9 13 -24 35 -34 50 -9 16 -25 28 -34 28 -9 0
-22 2 -30 5 -7 2 -40 -8 -73 -24z"/>
</g>
</svg>
